<svg width="64" height="64" fill="none" xmlns="http://www.w3.org/2000/svg"><path d="M64 0H0v64h64V0z" fill="#F9F5ED"/><path d="M40.021 14.389h-8.396a7.792 7.792 0 01.6 11.334l.032-.036v.036h7.764c1.44 0 2.498.5 3.326 1.575.922 1.199 1.452 2.962 1.452 4.837 0 5.846-3.98 6.142-4.778 6.142h-7.764V49.61h7.764c4.98 0 9.353-2.07 12.313-5.85 2.447-3.126 3.8-7.255 3.8-11.626 0-4.372-1.353-8.567-3.818-11.754-2.97-3.864-7.34-5.992-12.295-5.992zM18.794 20.34a7.774 7.774 0 012.763-5.951H9.087v11.334h11.835v-.036a7.759 7.759 0 01-2.128-5.348z" fill="#404B65"/><path d="M32.257 25.723v-.036l-.032.036a7.787 7.787 0 01-11.27 0l-.032-.036v23.936h11.334v-23.9z" fill="#D68270"/><path d="M26.045 25.657A5.346 5.346 0 1027.12 15.02a5.346 5.346 0 00-1.076 10.638z" fill="#D68270"/></svg>