<svg width="32" height="29" fill="none" xmlns="http://www.w3.org/2000/svg"><path d="M16.002 0C7.16-.003 0 6.66 0 14.883c0 6.503 4.48 12.03 10.718 14.06.84.197.711-.359.711-.738v-2.58c-4.851.53-5.048-2.459-5.373-2.958-.658-1.045-2.213-1.311-1.748-1.81 1.105-.53 2.23.133 3.536 1.926.943 1.302 2.785 1.082 3.718.866.203-.783.64-1.481 1.24-2.024-5.026-.838-7.121-3.694-7.121-7.088a6.29 6.29 0 011.726-4.383c-.729-2.014.068-3.738.176-3.994 2.077-.173 4.236 1.385 4.404 1.508 1.18-.297 2.528-.453 4.036-.453 1.516 0 2.867.163 4.058.463.404-.287 2.406-1.624 4.336-1.461.104.256.883 1.94.197 3.927a6.294 6.294 0 011.748 4.403c0 3.4-2.11 6.26-7.15 7.085.432.395.775.866 1.009 1.386a3.99 3.99 0 01.353 1.642v3.744c.029.3 0 .596.536.596C27.442 27.013 32 21.445 32 14.886 32 6.659 24.836 0 16.002 0z" fill="#F9F5ED"/></svg>