<svg width="39" height="39" fill="none" xmlns="http://www.w3.org/2000/svg"><path d="M35.066 11.14c.227-.756 0-1.31-1.076-1.31h-3.564c-.906 0-1.32.479-1.548 1.005 0 0-1.812 4.419-4.38 7.284-.828.833-1.207 1.097-1.659 1.097-.226 0-.554-.264-.554-1.02V11.14c0-.906-.261-1.31-1.017-1.31h-5.6c-.565 0-.906.42-.906.82 0 .858 1.283 1.056 1.415 3.474v5.245c0 1.15-.207 1.359-.662 1.359-1.207 0-4.145-4.435-5.889-9.511-.34-.987-.682-1.385-1.592-1.385H4.472c-1.019 0-1.222.48-1.222 1.006 0 .946 1.207 5.626 5.624 11.816 2.945 4.226 7.09 6.517 10.867 6.517 2.263 0 2.543-.508 2.543-1.386V24.59c0-1.018.216-1.223.932-1.223.527 0 1.434.267 3.548 2.303 2.415 2.415 2.814 3.499 4.171 3.499h3.562c1.017 0 1.526-.509 1.233-1.513-.32-1-1.473-2.454-3.004-4.175-.832-.981-2.075-2.038-2.454-2.566-.528-.68-.375-.981 0-1.586.002.002 4.342-6.111 4.794-8.19z" fill="#F9F5ED"/></svg>