<svg width="36" height="36" fill="none" xmlns="http://www.w3.org/2000/svg"><path d="M31.42 12.457a9.794 9.794 0 00-.628-3.324 6.915 6.915 0 00-3.95-3.949 9.91 9.91 0 00-3.278-.63c-1.444-.065-1.901-.083-5.564-.083-3.663 0-4.133 0-5.565.083a9.909 9.909 0 00-3.278.63 6.91 6.91 0 00-3.949 3.95 9.831 9.831 0 00-.629 3.277c-.064 1.444-.084 1.902-.084 5.565 0 3.663 0 4.131.084 5.565a9.893 9.893 0 00.629 3.28 6.916 6.916 0 003.951 3.948 9.875 9.875 0 003.277.676c1.445.064 1.902.084 5.566.084 3.663 0 4.132 0 5.565-.084a9.886 9.886 0 003.279-.629 6.923 6.923 0 003.949-3.95 9.879 9.879 0 00.628-3.28c.065-1.443.085-1.9.085-5.565-.003-3.663-.003-4.128-.087-5.564zM17.992 24.904a6.933 6.933 0 01-6.934-6.934 6.933 6.933 0 0111.837-4.904 6.934 6.934 0 01-4.903 11.838zm7.21-12.508a1.615 1.615 0 01-1.143-2.76 1.616 1.616 0 111.143 2.76z" fill="#F9F5ED"/><path d="M17.991 22.473a4.504 4.504 0 100-9.009 4.504 4.504 0 000 9.009z" fill="#F9F5ED"/></svg>