<svg width="54" height="44" fill="none" xmlns="http://www.w3.org/2000/svg"><path d="M4.418.662H7.12c1.026 0 1.82.233 2.38.7.616.523.924 1.223.924 2.1 0 .97-.364 1.703-1.092 2.198-.28.196-.621.331-1.022.406L11.222 10H8.954L6.462 6.248h-.224V10h-1.82V.662zm1.82 1.484V4.96h.518c.149 0 .294-.01.434-.028.149-.028.34-.08.574-.154.233-.084.42-.229.56-.434.149-.215.224-.48.224-.798 0-.317-.07-.579-.21-.784a1.028 1.028 0 00-.56-.434 2.891 2.891 0 00-.56-.154 3.281 3.281 0 00-.434-.028h-.546zM17.637.662V2.23h-3.36v2.086h3.22v1.568h-3.22v2.548h3.36V10h-5.18V.662h5.18zm1.765 0h2.716c.579 0 1.05.051 1.414.154.373.093.723.28 1.05.56.635.56.952 1.311.952 2.254 0 .877-.257 1.573-.77 2.086-.55.55-1.34.826-2.366.826h-1.176V10h-1.82V.662zm1.82 1.568v2.744h.742c.532 0 .929-.098 1.19-.294.336-.261.504-.625.504-1.092 0-.457-.173-.812-.518-1.064-.28-.196-.71-.294-1.288-.294h-.63zM32.402 10l-.826-1.96H27.81L26.984 10H25.01L29.056.466h1.372L34.362 10h-1.96zm-4.018-3.444h2.66l-1.316-3.36-1.344 3.36zM35.453.662h1.82V10h-1.82V.662zm3.95 0h2.703c1.026 0 1.82.233 2.38.7.616.523.924 1.223.924 2.1 0 .97-.364 1.703-1.092 2.198-.28.196-.62.331-1.022.406L46.208 10H43.94l-2.492-3.752h-.224V10h-1.82V.662zm1.82 1.484V4.96h.519c.15 0 .294-.01.434-.028.15-.028.34-.08.574-.154.233-.084.42-.229.56-.434.15-.215.224-.48.224-.798 0-.317-.07-.579-.21-.784a1.028 1.028 0 00-.56-.434 2.89 2.89 0 00-.56-.154 3.28 3.28 0 00-.434-.028h-.546zM1.26 17.662h2.436c.738 0 1.382.065 1.932.196.551.121 1.064.36 1.54.714.57.43 1.008.97 1.316 1.624.318.653.476 1.367.476 2.142 0 1.633-.625 2.889-1.876 3.766a4.41 4.41 0 01-1.54.714c-.522.121-1.148.182-1.876.182H1.26v-9.338zm1.82 1.568v6.202h.56c.952 0 1.713-.205 2.282-.616.364-.261.649-.611.854-1.05.206-.448.308-.924.308-1.428 0-.495-.102-.961-.308-1.4a2.729 2.729 0 00-.84-1.092c-.55-.41-1.316-.616-2.296-.616h-.56zm12.74-1.568v1.568h-3.36v2.086h3.22v1.568h-3.22v2.548h3.36V27h-5.18v-9.338h5.18zm7.309.882l-.953 1.246c-.4-.532-.91-.798-1.526-.798-.448 0-.774.112-.98.336a1.059 1.059 0 00-.308.756c0 .252.098.462.294.63.15.14.523.317 1.12.532.925.317 1.555.63 1.89.938.533.476.799 1.13.799 1.96 0 .915-.304 1.657-.91 2.226-.598.56-1.377.84-2.338.84-1.345 0-2.418-.588-3.22-1.764l1.19-1.134c.205.42.49.733.854.938a2.23 2.23 0 001.105.308c.42 0 .766-.117 1.037-.35.27-.243.405-.555.405-.938 0-.327-.12-.607-.363-.84-.224-.205-.705-.434-1.442-.686-.691-.233-1.21-.504-1.555-.812-.494-.43-.742-1.008-.742-1.736 0-.756.257-1.4.77-1.932.514-.541 1.256-.812 2.227-.812 1.054 0 1.936.364 2.646 1.092zm1.934-.882h1.82V27h-1.82v-9.338zm8.683 5.908v-1.568h4.284v.238c0 1.279-.284 2.329-.854 3.15-.84 1.213-2.076 1.82-3.71 1.82-1.446 0-2.627-.448-3.542-1.344-.905-.905-1.358-2.081-1.358-3.528s.462-2.623 1.386-3.528c.934-.905 2.124-1.358 3.57-1.358a5.29 5.29 0 011.68.252c.504.168.915.392 1.232.672.318.28.55.513.7.7.15.177.28.369.392.574l-1.582.854a2.988 2.988 0 00-.266-.364 2.684 2.684 0 00-.434-.448 2.101 2.101 0 00-.756-.42 2.77 2.77 0 00-.98-.168c-.905 0-1.642.317-2.212.952-.57.625-.854 1.395-.854 2.31 0 .83.257 1.573.77 2.226.514.644 1.274.966 2.282.966.7 0 1.293-.163 1.778-.49.495-.327.789-.826.882-1.498h-2.408zm7.78 3.43h-1.82v-9.548h1.26l5.684 6.496v-6.286h1.82v9.52h-1.26l-5.684-6.496V27zM.685 33.662h2.716c.579 0 1.05.051 1.414.154.373.093.723.28 1.05.56.635.56.952 1.311.952 2.254 0 .877-.257 1.573-.77 2.086-.55.55-1.34.826-2.366.826H2.505V43H.685v-9.338zm1.82 1.568v2.744h.742c.532 0 .929-.098 1.19-.294.336-.261.504-.625.504-1.092 0-.457-.173-.812-.518-1.064-.28-.196-.71-.294-1.288-.294h-.63zm5.659-1.568h2.702c1.026 0 1.82.233 2.38.7.616.523.924 1.223.924 2.1 0 .97-.364 1.703-1.092 2.198-.28.196-.621.331-1.022.406L14.968 43H12.7l-2.492-3.752h-.224V43h-1.82v-9.338zm1.82 1.484v2.814h.518c.149 0 .294-.01.434-.028.149-.028.34-.08.574-.154.233-.084.42-.229.56-.434.149-.215.224-.48.224-.798 0-.317-.07-.579-.21-.784a1.028 1.028 0 00-.56-.434 2.893 2.893 0 00-.56-.154 3.276 3.276 0 00-.434-.028h-.546zm7.157-.322c.933-.915 2.132-1.372 3.598-1.372 1.465 0 2.66.457 3.584 1.372.933.915 1.4 2.086 1.4 3.514s-.467 2.6-1.4 3.514c-.924.905-2.119 1.358-3.584 1.358-1.466 0-2.665-.453-3.598-1.358-.924-.915-1.386-2.086-1.386-3.514s.462-2.6 1.386-3.514zm1.358 5.838c.578.597 1.325.896 2.24.896.914 0 1.661-.299 2.24-.896.578-.607.868-1.381.868-2.324 0-.943-.294-1.717-.882-2.324-.579-.607-1.321-.91-2.226-.91-.906 0-1.652.303-2.24.91-.579.607-.868 1.381-.868 2.324 0 .943.289 1.717.868 2.324zm10.413-7h1.82v6.3c0 1.39-.364 2.333-1.092 2.828-.43.28-.938.42-1.526.42-.821 0-1.535-.29-2.142-.868l1.106-1.33c.233.336.537.504.91.504.336 0 .574-.107.714-.322.14-.205.21-.71.21-1.512v-6.02zm9.123 0v1.568h-3.36v2.086h3.22v1.568h-3.22v2.548h3.36V43h-5.18v-9.338h5.18zm8.541 6.874v2.128c-.69.364-1.46.546-2.31.546-1.362 0-2.501-.434-3.416-1.302-.998-.961-1.498-2.151-1.498-3.57 0-1.512.5-2.73 1.498-3.654.878-.821 2.021-1.232 3.43-1.232a4.76 4.76 0 012.296.574v2.128c-.606-.7-1.358-1.05-2.254-1.05-.914 0-1.661.322-2.24.966-.569.635-.854 1.4-.854 2.296 0 .98.318 1.76.952 2.338a3.21 3.21 0 002.212.854c.878 0 1.606-.34 2.184-1.022zm6.713-5.306h-2.1V43h-1.82v-7.77h-2.1v-1.568h6.02v1.568z" fill="#E3B873"/></svg>