<svg xmlns="http://www.w3.org/2000/svg" viewBox="0 0 480 480"><path d="M459.4 402.4L357 369.2c-2.4-.8-5-1.2-7.6-1.2H348l-21.6-28.8c-1.3-1.7-3.2-2.9-5.4-3.1-.3 0-.7 0-1 .1v-.2h-8v-25.6c20.2-15.6 32-39.7 32-65.2v-65.8c1.4 0 2.7-.3 3.9-1 2.5-1.4 4.1-4.1 4.1-7v-63.3l40-16.2V104c-8.8 0-16 7.2-16 16v48c0 8.8 7.2 16 16 16h16c8.8 0 16-7.2 16-16v-48c0-8.8-7.2-16-16-16V80c0-3.1-1.8-6-4.7-7.3l-160-72c-2.1-.9-4.5-.9-6.6 0l-160 72c-4 1.8-5.8 6.5-4 10.6.8 1.9 2.4 3.4 4.3 4.1l51 20.7v63.3c0 4.4 3.6 8 8 8v65.8c0 25.5 11.8 49.6 32 65.2V336h-8v.1c-.3-.1-.7-.1-1-.1-2.1.3-4.1 1.4-5.4 3.1L132 368h-1.4c-2.5 0-5 .4-7.4 1.2l-103 33.4C8 407.3-.1 419.1 0 432.2V472c0 4.4 3.6 8 8 8h464c4.4 0 8-3.6 8-8v-39.8c0-13.2-8.2-25.1-20.6-29.8zM408 120v48h-16v-48h16zm-89.4 235.4l14.6 19.5-60.9 54.1-20.3-20.3 66.6-53.3zM240 397.8L184 353v-32.7c10.9 5.1 22.8 7.8 34.8 7.8h42.4c12 0 23.9-2.7 34.8-7.8V353l-56 44.8zM134.8 72.1c-3.9.6-6.8 3.9-6.8 7.9v10.8l-27.7-11.2L240 16.8l139.7 62.8L352 90.8V80c0-3.9-2.9-7.3-6.8-7.9l-104-16c-.8-.1-1.6-.1-2.4 0l-104 16zm9 31.9c.1-.4.1-.8.2-1.3V86.9l96-14.8 96 14.8v15.9c0 .4.1.9.2 1.3h-.2v54.6c-11.5-4.4-23.7-6.7-36-6.6-20-.4-39.5 5.9-55.6 17.7-1.6 1.2-3 2.5-4.4 3.8-1.4-1.3-2.8-2.6-4.4-3.8-16.1-11.9-35.6-18.2-55.6-17.8-12.3 0-24.5 2.2-36 6.6V104h-.2zm8.2 141.2v-72.3c9-3.2 18.5-4.9 28-4.9 16.4-.4 32.4 4.7 45.7 14.3 3 2.3 5.6 4.9 7.9 7.9 2.7 3.5 7.7 4.3 11.2 1.6.6-.5 1.1-1 1.6-1.6 2.3-3 4.9-5.7 7.9-7.9 13.3-9.6 29.3-14.7 45.7-14.3 9.5 0 19 1.7 28 4.9v72.3c0 36.9-29.9 66.8-66.8 66.8h-42.4c-36.9 0-66.8-29.9-66.8-66.8zm9.4 110.2l66.6 53.3-20.3 20.3-60.9-54.1 14.6-19.5zM464 464H16v-31.8c-.1-6.4 3.7-12.2 9.6-14.6l102.6-33.2c.8-.2 1.5-.4 2.3-.4h2.4l69.7 62c3.2 2.8 8 2.7 11-.3l26.3-26.3 26.3 26.3c3 3 7.8 3.1 11 .3l69.7-62h2.4c.8 0 1.7.1 2.5.4l102 33c6.1 2.4 10.1 8.3 10.1 14.8V464z" fill="#009ac0"/></svg>