<svg width="2500" height="687" viewBox="0 0 2500 687" fill="none" xmlns="http://www.w3.org/2000/svg">
<g clip-path="url(#clip0)">
<path d="M426.779 154.488V156.007L427.534 156.771H487.416L488.17 156.007V154.488L456.338 73.7022L426.779 154.488ZM501.064 257.379V256.625L507.893 255.86L513.948 253.577L519.248 250.53L522.285 246.709L523.04 242.143L521.531 235.284L493.491 168.98V167.441L491.972 165.923H422.243V166.687L421.479 168.206L394.947 237.557L393.439 243.652L394.947 248.227L398.739 252.039L405.568 255.086L415.424 256.615V257.369H357.051V256.615L365.388 255.086L371.453 252.803L375.999 248.992L379.791 242.897L463.177 23.4082H464.686L555.646 240.614L560.192 247.473L565.502 252.049L572.331 255.096L580.669 256.625V257.379H501.064ZM1541.09 257.379V256.625L1544.88 255.86L1550.19 255.096L1555.49 253.577L1560.04 250.53L1563.07 245.954L1564.59 239.096L1565.35 217.765V193.378L1566.1 168.226V111.827L1565.35 80.5808L1564.59 53.1459L1563.07 46.2872L1560.04 41.7114L1555.49 38.6641L1550.19 37.1455L1544.88 36.3812L1541.09 35.6169V34.8427H1694.21L1695.73 47.7959L1696.49 63.0419L1697.24 77.5236H1695.73L1693.46 69.9006L1690.42 62.2677L1686.63 55.4189L1682.08 50.0788L1675.26 47.7959L1658.58 46.2772H1619.91L1599.44 47.7959H1597.93L1595.66 48.5602L1593.39 50.8431V133.148L1594.14 135.431L1594.91 136.949L1596.42 137.714H1660.84L1667.67 136.949L1672.98 133.138L1676.77 128.572L1678.28 121.713L1679.79 114.09H1680.56V178.102H1679.79L1678.28 171.253L1675.25 159.054L1671.45 153.714L1666.91 150.667L1660.84 149.138H1596.42L1594.91 149.903L1593.39 152.96V242.123L1595.66 244.406L1597.93 245.16H1599.44L1613.84 245.925L1629 246.679H1663.87L1674.48 245.925L1683.57 245.16L1689.64 242.877L1694.18 239.066L1697.22 233.736L1700.26 227.641L1702.53 220.783L1704.04 214.688H1705.55V225.358L1704.04 248.227L1703.29 257.369H1541.09V257.379ZM1958.01 257.379V256.625L1961.8 255.86L1967.1 255.096L1972.41 253.577L1976.96 250.53L1980 245.954L1981.51 239.096L1982.26 212.415V152.215L1968.62 126.309L1960.28 109.544L1951.18 92.7796L1942.85 76.7792L1933.75 63.0618L1924.65 50.863L1914.04 41.7114L1902.67 36.3812L1890.54 34.0983V32.5499L1896.6 31.0312L1903.42 30.2669H1908.73L1923.89 31.7856L1936.77 34.8427L1946.63 40.9372L1955.72 49.3245L1963.3 59.2304L1970.89 70.655L1978.48 84.3724L2005.76 136.205L2013.35 124.78L2021.69 111.053L2030.79 95.8169L2039.88 81.3351L2047.46 66.8534L2054.29 54.6546L2056.57 49.3245L2055.81 44.7487L2052.77 41.6915L2048.23 38.6443L2034.58 35.5872V34.8427H2093.71V35.5971L2084.62 37.1256L2077.03 41.6915L2070.97 49.3245L2015.63 138.488L2012.6 144.582L2011.09 149.912L2010.33 156.007V185.725L2011.09 213.934L2012.6 239.076L2014.11 245.935L2017.15 250.51L2021.7 253.558L2027 255.076L2036.1 256.605V257.359H1958.01V257.379ZM62.9196 42.4558L58.3736 44.7387L56.8649 47.786L56.1006 52.3617V127.818L57.6192 131.629L62.1653 133.912L70.5029 134.676H82.6422L94.0171 133.912L103.864 130.865L112.201 125.525L119.784 118.676L125.849 109.524L128.886 98.0998L130.395 85.1367L128.886 72.1736L125.095 60.749L118.266 52.3617L109.174 46.2673L97.0246 43.2201L82.6322 41.6915H70.493L62.9196 42.4558ZM64.4383 144.582L59.128 146.101L56.8549 149.148L56.0907 152.97V232.991L56.8549 239.85L60.6466 245.18L66.7013 248.237L76.5577 249.756L89.4413 250.52L102.335 249.756L114.464 245.945L125.839 240.604L134.941 232.981L141.76 223.075L146.316 210.112L147.825 195.641L146.316 181.913L142.524 170.489L136.46 161.337L128.122 154.488L118.266 149.148L106.891 146.101L95.5159 144.582L82.6322 143.818H72.0216L64.4383 144.582ZM62.1653 258.898L47.0086 258.143H32.5963L18.9483 257.379H2.27301V256.625L9.85631 254.342L15.921 252.059L21.2214 249.002L24.2586 243.672L25.7674 236.813L26.5317 207.095L27.286 175.849V111.837L26.5416 80.5609L25.7773 53.126L24.2586 46.2673L20.4769 41.6915L15.9309 38.6443L11.375 37.1256L6.06466 36.3614L1.51865 35.5971V34.8427L18.9483 34.0784H37.1423L54.5819 33.3241L70.5029 32.5598H83.3965L94.7715 33.3241L106.901 34.8427L118.276 37.1256L128.886 40.9372L137.978 46.2673L146.326 53.126L152.381 61.5133L156.172 72.1736L157.691 84.3724L156.172 96.5712L152.381 107.241L146.326 116.393L139.497 124.016L130.395 130.875L121.303 136.205L131.15 138.488L141.76 143.054L152.371 149.148L161.473 157.535L169.056 167.441L174.357 179.64L175.865 193.368L174.357 206.321L170.565 219.284L164.5 229.954L155.408 239.86L143.279 247.483L128.122 253.577L109.928 257.389L88.6969 258.908H62.1653V258.898ZM2348.4 258.898L2328.69 255.85L2310.5 250.52L2309.74 249.756L2308.23 248.992L2307.48 247.473V204.792H2308.23L2313.53 220.793L2320.36 233.756L2328.7 242.897L2339.31 248.992L2352.2 252.803L2368.13 253.568L2379.5 252.049L2390.11 248.237L2397.69 241.379L2403.75 232.991L2407.54 220.793L2409.06 207.075L2407.54 195.651L2403.75 186.499L2396.93 178.112L2388.58 171.263L2379.49 165.923L2368.88 159.828L2358.27 154.498L2346.89 148.404L2336.28 142.309L2327.19 135.451L2318.85 127.063L2312.03 116.403L2308.23 104.968L2306.72 90.4867L2308.23 75.2506L2313.53 62.2875L2321.87 50.863L2332.48 41.7114L2346.13 34.8626L2361.29 31.0511L2377.96 29.5225L2399.95 31.8054L2419.66 36.3812L2422.69 37.1455L2425.73 38.6641L2426.49 39.4284V40.9471L2424.22 81.3351H2422.7L2418.92 67.6177L2414.36 56.1832L2407.53 47.7959L2398.44 42.4657L2387.06 38.6542L2372.66 37.8899L2364.32 38.6542L2355.99 40.9372L2348.4 44.7487L2341.57 50.0788L2336.26 57.7118L2333.23 66.8534L2331.72 78.278L2333.23 90.4768L2337.03 100.393L2342.33 109.534L2349.91 116.393L2359 122.487L2368.86 127.818L2378.72 132.393L2389.33 136.959L2399.17 142.299L2409.03 148.394L2418.12 155.243L2425.71 163.63L2431.02 173.536L2434.81 184.97L2436.32 199.452L2434.04 214.688L2428.73 227.651L2420.4 239.076L2409.78 248.227L2396.9 255.076L2382.5 258.888L2367.34 260.416L2348.4 258.898ZM1327.33 264.238L1168.14 58.4562V165.158L1168.9 190.301V213.934L1169.66 236.039L1171.93 242.887L1176.48 248.227L1183.3 252.039L1191.65 254.322L1202.26 256.605V257.359H1128.73V256.605L1137.07 254.322L1143.9 252.039L1149.96 248.227L1152.99 242.887L1154.51 236.039L1155.26 207.839L1156.02 176.593V114.1L1155.26 97.3355V79.8066L1154.51 64.5605V52.3617L1152.99 43.9744L1149.2 37.88L1143.9 34.0685L1138.59 31.0213L1132.53 29.4927H1127.22V27.9741L1147.7 25.6911L1159.83 26.4554L1170.44 30.2669L1180.3 35.5971L1189.39 43.23L1198.48 53.8903L1209.09 66.0891L1312.94 197.933V89.7125L1311.44 56.1732L1309.92 47.786L1305.37 41.6915L1297.03 37.88L1285.66 35.5971V34.8427H1350.84V35.5971L1342.5 37.88L1336.44 40.1629L1331.14 43.9744L1328.1 49.3145L1326.59 56.1633L1325.84 78.2681L1325.07 103.42V156.771L1325.84 184.206L1326.59 212.405L1328.1 239.85L1328.86 264.238H1327.33ZM821.717 43.2201L817.161 44.7387L814.888 47.786L814.133 53.126V141.525L814.888 145.337L817.925 147.62L823.226 149.138H831.563L842.174 148.384L852.785 146.101L862.641 142.289L871.733 136.195L879.316 128.572L885.381 119.42L889.173 108.75L890.681 95.797L889.173 81.3153L886.135 68.3522L880.081 58.4562L872.497 51.6074L862.651 46.2673L851.286 42.4558L839.147 41.6915H828.536L821.717 43.2201ZM929.352 263.473L917.977 260.426L907.367 254.332L897.52 246.699L887.664 237.557L878.572 226.887L826.263 163.63L823.99 160.593L821.717 159.074L820.198 157.545L818.689 156.791H816.416L814.908 159.838V236.058L816.416 242.907L819.454 248.247L824.754 252.059L831.583 254.342L839.166 256.625V257.379H761.854V256.625L768.673 254.342L773.984 252.059L779.284 249.002L782.321 243.672L783.83 236.813L784.594 207.095L785.349 175.849V95.8268L784.594 73.7221L783.83 53.1459L782.321 46.2872L779.284 41.7114L774.738 38.6641L769.438 37.1455L760.336 35.6169V34.8427L774.738 34.0784H791.413L809.607 33.3241L825.528 32.5598H838.412L852.814 33.3241L866.462 34.8427L878.592 37.8899L889.967 42.4657L899.813 48.5602L907.367 56.1732L913.431 66.0792L917.223 79.0423L918.741 93.524L917.223 107.241L912.677 119.44L905.848 129.346L897.51 137.734L886.135 145.357L873.242 150.697L859.604 154.508L858.849 155.262H858.085V156.027L858.849 156.791L859.604 158.31L899.773 209.378L908.875 221.577L919.486 233.001L930.097 243.672L940.697 252.813L951.308 258.153L961.164 260.436V261.955L955.854 263.473L949.035 264.238L942.97 264.992L929.352 263.473ZM382.808 652.158V650.639L391.9 649.11L397.21 647.592L401.756 644.545L404.794 639.969L406.302 633.11L407.057 612.534L407.821 588.146L408.575 562.24V513.465L407.821 489.841L407.057 467.736L406.302 447.924L404.794 441.066L401.756 436.49L397.21 433.443L391.9 431.914L382.808 430.396V428.877H536.688L537.442 441.84L538.206 457.84L538.961 472.322H537.442L535.933 466.228L533.66 459.369L530.633 453.275L527.596 447.944L523.04 444.123L516.985 441.82L500.3 441.056H462.403L441.936 441.82L437.39 443.339L436.626 444.857L435.871 447.14V527.926L437.39 530.984L438.899 531.738H503.327L510.156 530.984L515.456 527.172L518.494 522.596L520.767 515.738L521.521 508.114H523.03V572.126H521.521L520.767 565.277L519.248 559.183L516.985 553.088L513.948 548.513L509.402 545.465L503.337 543.937H438.909L437.4 544.701L436.636 545.465L435.881 546.984V636.147L438.154 638.43L440.427 639.185H441.946L456.348 639.949L471.505 640.713H498.791L513.193 639.949L526.077 639.185L531.387 637.666L535.933 633.854L539.725 628.524L544.271 614.797L546.544 608.703H547.298V623.184L546.544 638.43L545.025 652.148H382.808V652.158ZM1206.04 652.158V650.639L1215.14 649.11L1220.44 647.592L1224.99 644.545L1228.02 639.969L1229.54 633.11L1230.29 606.43L1231.05 577.476V546.994L1217.41 520.313L1209.06 503.549L1199.97 486.784L1191.63 471.548L1182.53 457.066L1172.68 445.642L1162.83 436.49L1151.45 430.396L1138.56 428.113V426.594L1148.41 425.075L1157.52 424.311L1172.67 425.83L1184.8 428.887L1195.41 434.981L1204.51 443.369L1212.09 453.275L1218.92 465.473L1226.5 479.191L1253.79 530.259L1261.37 518.834L1269.72 505.107L1278.81 490.635L1287.9 475.389L1296.25 460.907L1303.08 448.709L1305.35 443.378L1303.84 438.803L1301.57 435.755L1296.27 433.473L1290.2 431.944L1283.38 430.425V428.907H1341.75V430.425L1333.41 431.944L1325.83 435.765L1319.76 443.388L1264.43 533.326L1261.39 539.42L1259.12 544.751V579.809L1259.87 608.008L1260.63 633.15L1262.14 640.008L1265.17 644.584L1269.73 647.631L1275.03 649.15L1284.12 650.679V652.197H1206.04V652.158ZM1604.01 434.187L1588.85 439.527L1575.97 448.669L1564.59 460.103L1555.49 474.575L1548.66 491.34L1544.87 511.152L1543.36 532.492L1544.12 549.257L1546.39 566.012L1550.94 582.012L1557 597.258L1564.58 610.976L1574.43 623.174L1585.04 633.08L1598.69 640.713L1613.09 645.279L1629.77 646.808L1646.45 645.279L1661.61 640.713L1674.49 633.854L1685.87 624.703L1694.97 613.278L1701.79 600.315L1707.1 584.315L1710.14 567.56L1710.89 549.267L1710.14 531.728L1707.1 514.199L1702.55 497.434L1696.49 482.198L1688.15 468.471L1678.29 456.272L1666.16 446.366L1652.52 438.743L1637.36 434.167L1620.68 432.649L1604.01 434.187ZM1605.53 654.441L1585.81 649.1L1568.38 640.723L1552.46 629.289L1538.83 615.571L1528.22 599.571L1519.88 582.032L1514.57 562.22L1513.06 540.889L1514.57 519.549L1519.88 499.737L1527.46 481.444L1538.07 464.679L1551.71 450.962L1567.63 439.537L1585.82 431.15L1606.3 425.055L1628.29 423.537L1648.75 425.055L1667.7 430.386L1685.14 439.537L1701.06 450.197L1714.71 464.679L1726.09 480.68L1734.42 498.973L1739.73 518.795L1741.24 540.125L1739.73 560.701L1735.18 579.759L1726.84 597.288L1716.98 614.053L1703.35 627.77L1687.42 639.969L1669.23 648.356L1648.75 653.686L1626.01 655.969L1605.53 654.441ZM899.029 657.488L886.145 614.053L872.497 568.324L858.859 524.125L845.211 481.444L830.809 524.889L817.161 569.843L804.277 614.807L791.384 657.488H790.629L783.046 634.629L775.463 610.995L767.125 586.608L758.787 561.466L742.102 514.209L733.764 492.868L726.935 473.821L720.106 457.056L714.806 443.339L711.769 437.244L707.223 433.433L702.677 431.904L693.575 430.386V428.867H764.832V430.386L760.286 431.15L754.986 431.904L750.43 434.187L747.402 437.244L745.884 442.575L747.402 449.433L756.494 477.632L767.105 507.35L788.336 568.324L798.183 597.288L824.714 511.162L852.01 425.046H852.765L878.542 511.926L892.944 555.371L908.101 597.288L920.985 559.937L934.633 521.832L947.516 484.491L958.891 447.905L959.646 441.81L958.891 437.989L955.854 434.942L952.062 432.659L946.762 431.894L937.67 430.376V428.857H996.788V430.376L989.969 431.14L984.659 433.423L980.113 436.47L975.567 442.565L971.775 451.716L967.219 463.915L961.164 479.915L954.335 498.209L946.752 519.539L939.169 541.644L922.493 588.901L907.327 636.157L900.508 657.488H899.029ZM200.124 658.252L40.934 452.48V559.937L41.6983 585.089V608.712L42.4526 630.053L43.9613 637.676L48.5074 643.006L55.3363 646.827L64.4383 649.1L75.0489 650.629V652.148H1.51865V650.629L9.10195 648.346L15.9309 646.063L21.9856 643.006L25.7773 637.676L27.2959 630.053L28.0503 601.854L28.8047 571.372V508.879L28.0503 491.34V474.575L27.2959 459.339L26.5416 447.15L25.0229 438.763L21.2313 432.669L16.6853 428.857L10.6206 425.8L5.3103 424.281H0V421.998L21.2313 420.48L33.3606 421.244L43.2169 425.055L52.3089 430.386L61.4109 438.009L70.5029 447.924L81.1136 460.878L184.967 591.958V483.727L184.213 467.726V450.962L182.694 442.575L177.394 436.48L169.811 432.669L157.681 430.386V428.867H222.864V430.386L214.526 432.669L208.462 434.951L203.161 438.763L200.124 444.093L198.615 450.952V472.292L197.851 498.199V551.55L198.615 578.22L199.369 606.42L200.124 633.864L201.633 658.252H200.124ZM1971.66 437.244L1967.1 439.527L1965.6 442.575L1964.84 447.915V535.549L1965.6 540.125L1968.63 542.408L1973.93 543.927H1982.27L1992.88 543.172L2002.74 540.889L2013.35 536.314L2022.44 530.984L2030.02 523.351L2036.09 514.209L2039.88 502.784L2041.39 489.821L2039.88 475.34L2036.09 462.376L2030.79 452.471L2022.44 445.622L2013.35 440.282L2001.97 436.47L1989.08 435.716H1978.48L1971.66 437.244ZM2080.06 658.252L2068.68 654.441L2058.07 648.346L2048.22 640.723L2039.13 631.572L2029.27 620.901L1976.96 557.654L1973.92 555.371L1972.41 553.088L1970.9 551.57L1969.39 550.805H1967.11L1966.36 552.324L1965.61 553.088L1964.85 555.371V630.053L1966.36 637.676L1969.4 643.006L1975.46 646.827L1982.28 649.1L1989.86 650.629V652.148H1912.55V650.629L1919.38 649.1L1924.68 646.827L1929.98 643.77L1933.02 638.44L1934.54 631.581L1935.29 601.864L1936.05 569.843V513.445L1935.29 489.821V467.717L1934.54 447.905L1933.02 441.046L1929.98 436.47L1925.44 433.423L1920.14 431.894L1914.82 431.14L1911.03 430.376V428.857L1924.68 428.093H1940.6L1958.04 427.338H1986.09L2001.25 428.093L2015.64 429.621L2029.29 432.669L2040.66 437.244L2050.52 443.339L2058.1 451.726L2064.16 461.632L2067.95 473.831L2069.47 489.067L2067.95 502.03L2064.16 513.455L2057.34 523.361L2048.99 531.748L2037.62 538.607L2025.49 543.937L2011.09 548.513L2009.58 549.277H2008.82V551.56L2009.58 553.078L2049.76 604.147L2058.09 614.053L2076.29 633.864L2085.38 642.252L2094.48 649.1L2103.57 653.676L2111.16 655.195V655.959L2105.86 658.242L2093.72 659.761L2080.06 658.252ZM2481.05 663.582L2464.38 662.064L2449.22 658.252L2436.33 652.158L2424.2 643.77L2412.82 633.864L2402.21 622.44L2336.25 549.277L2334.75 547.748H2333.23L2332.47 549.277V583.57L2333.23 601.864L2333.99 618.618L2334.75 633.1L2336.25 639.959L2339.29 644.535L2343.84 647.582L2349.15 649.1L2358.24 650.629V652.148H2280.16V650.629L2283.96 649.865L2289.27 649.1L2294.57 647.582L2299.11 644.535L2302.15 639.959L2303.66 633.1L2304.42 612.524V588.136L2305.18 562.23V513.455L2304.42 489.831V467.726L2303.66 447.915L2302.15 441.056L2299.11 436.48L2294.57 433.433L2289.27 431.904L2283.96 431.15L2280.16 430.386V428.867H2358.24V430.386L2349.15 431.904L2343.84 433.433L2339.29 436.48L2336.25 441.056L2334.75 447.915L2333.99 467.726L2333.23 490.595L2332.47 514.983V537.842L2360.52 511.162L2387.81 482.208L2412.83 454.009L2417.38 448.669L2420.42 443.339L2421.17 439.527L2419.66 434.951L2415.87 432.669L2409.8 431.15L2402.22 430.386V428.867H2460.59V430.386L2452.25 432.669L2444.66 437.999L2437.08 444.093L2429.5 451.726L2356.73 531.748L2389.33 569.853L2396.15 577.486L2404.49 586.628L2415.09 598.062L2426.47 610.261L2438.6 622.46L2451.48 633.884L2464.38 643.79L2477.26 652.178L2489.39 657.508L2500 659.791V661.309L2493.95 662.838L2487.12 663.592H2481.05V663.582Z" fill="black"/>
</g>
<defs>
<clipPath id="clip0">
<rect width="2500" height="687" fill="white"/>
</clipPath>
</defs>
</svg>
