<svg width="2500" height="1357" viewBox="0 0 2500 1357" fill="none" xmlns="http://www.w3.org/2000/svg">
<g clip-path="url(#clip0)">
<path d="M1497.86 0H2336.91L2499.81 0.233141V290.086C2473 294.545 2435.09 301.248 2406.06 310.166C2354.74 330.216 2198.54 356.998 2198.54 267.763C2198.54 178.499 2330.2 194.119 2330.2 194.119C2330.2 194.119 2316.83 171.796 2261.05 160.664C2207.45 149.502 2111.49 136.125 1975.39 241.01C1837.02 345.895 1747.73 339.192 1747.73 339.192C1747.73 339.192 1671.84 345.865 1671.84 267.792C1671.84 191.905 1805.72 200.851 1805.72 200.851C1805.72 200.851 1741.03 156.205 1678.63 156.205C1618.36 156.205 1558.1 176.255 1482.27 218.687C1435.44 243.225 1375.14 263.333 1334.95 272.222V0.116571L1497.86 0ZM2499.78 589.09V633.737L2499.17 796.644H1335.62L1334.98 633.737V573.499C1375.17 562.337 1435.41 544.502 1482.3 517.72C1558.18 475.317 1618.39 455.209 1678.66 455.209C1741.11 455.209 1805.78 499.826 1805.78 499.826C1805.78 499.826 1671.9 490.85 1671.9 569.011C1671.9 644.869 1747.79 638.196 1747.79 638.196C1747.79 638.196 1837.02 644.869 1975.42 540.014C2111.52 435.129 2207.48 448.535 2261.05 459.697C2316.83 470.858 2330.2 493.123 2330.2 493.123C2330.2 493.123 2198.54 477.503 2198.54 569.011C2198.54 658.246 2354.74 629.22 2406.06 611.414C2435.12 600.252 2473 593.578 2499.78 589.09V589.09ZM1101.84 1095.01H1111.46C1134.36 1095.01 1151.47 1090.84 1162.72 1082.59C1173.97 1074.35 1179.65 1061.99 1179.65 1045.49C1179.65 1029.61 1174.23 1017.78 1163.59 1010.2C1152.98 1002.62 1136.34 998.866 1113.76 998.866H1101.84V1095.01V1095.01ZM2414.13 1278.4H2492.73V1357H2414.13V1278.4ZM982.004 942.008H953.503L610.173 1313.93H581.788V942.008H547.195V1313.93H395.274V942.008H360.682V1349.71H780.016V1313.9H656.859L722.197 1244.92H946.246L944.847 1349.74H981.946V942.008H982.004V942.008ZM755.449 1213.73L951.346 987.558L947.091 1213.73H755.449ZM330.228 942.008H296.16V1349.71H330.228V942.008ZM0.187012 942.008V1349.71H106.441C163.386 1349.71 176.617 1349.71 193.345 1346.83C259.469 1334.71 277.217 1278.11 277.217 1234.22C277.217 1178.79 249.794 1142.95 205.031 1131.44C203.594 1131.38 202.193 1130.97 200.951 1130.24C201.971 1130.24 202.962 1130.24 203.982 1129.63C226.859 1125.05 265.007 1103.14 265.007 1043.6C265.007 1013 254.34 986.451 237.03 969.053C210.626 942.533 176.034 941.95 148.611 941.95L0.187012 942.008ZM34.2548 976.601H141.034C166.446 976.601 191.392 976.601 209.169 992.192C221.351 1002.6 230.035 1019.91 230.035 1043.02C230.035 1066.68 221.38 1085.19 209.694 1096.17C190.314 1114.71 162.366 1114.71 134.914 1114.71H34.2548V976.601ZM34.2548 1148.16H133.398C153.244 1148.75 171.021 1148.75 186.788 1153.96C193.928 1155.68 243.237 1171.8 243.237 1235.91C243.237 1285.6 214.765 1311.62 169.011 1313.9C160.384 1314.51 149.194 1314.51 125.297 1314.51H34.2548V1148.16ZM2442.55 1122.96C2442.55 1124.56 2442.66 1126.95 2442.9 1130.12C2443.07 1133.27 2443.19 1135.66 2443.19 1137.29C2443.19 1155.51 2441.47 1172.53 2438.18 1188.12C2435.02 1203.42 2429.95 1218.26 2423.08 1232.3C2403.03 1272.08 2375.84 1302.82 2341.25 1324.51C2306.74 1346.19 2267.78 1357 2224.27 1357C2192.15 1357 2162.52 1350.85 2135.35 1338.61C2108.05 1326.34 2083.63 1308.27 2061.89 1284.08C2043.83 1264.04 2029.79 1240.72 2020.5 1215.4C2017.66 1207.78 2015.24 1200 2013.28 1192.11V1348.58H1936.25L1759.41 1069.39V1348.58H1677.93V1200.24C1676.1 1206.63 1673.95 1212.92 1671.49 1219.1C1661.22 1245.63 1645.61 1269.76 1625.62 1290C1605.55 1311.32 1581.26 1328.23 1554.31 1339.66C1527.48 1351.17 1498.58 1357.07 1469.39 1357C1437.74 1357 1408.59 1351.38 1381.96 1340.1C1355.06 1328.63 1330.92 1311.55 1311.14 1290C1298.91 1277.11 1288.28 1262.78 1279.49 1247.34C1277.68 1256.81 1274.86 1266.06 1271.07 1274.93C1264.31 1291.5 1253.84 1306.3 1240.47 1318.18C1227.71 1328.96 1212.83 1336.93 1196.79 1341.58C1180.64 1346.25 1157.79 1348.52 1128.33 1348.52H1021.93V924.202H1113.15C1131.65 924.202 1146.28 924.872 1157.21 926.359C1168.05 927.903 1177.7 930.351 1186.06 933.819C1209.35 943.261 1227.24 957.046 1239.68 974.91C1252.13 992.716 1258.28 1013.61 1258.28 1037.57C1258.28 1057.38 1254.58 1074.29 1247.23 1088.19C1239.8 1102.18 1228.96 1112.87 1214.62 1120.04C1228.15 1123.89 1240.58 1130.88 1250.9 1140.44L1250.87 1135.43C1250.87 1112.14 1253.96 1090.17 1260.23 1069.45C1266.4 1048.75 1275.73 1029.13 1287.89 1011.28C1307.96 981.575 1335.09 957.305 1366.83 940.638C1398.48 924.027 1433.05 915.663 1470.61 915.663C1498.79 915.663 1525.92 921.142 1552.06 932.041C1578.29 942.933 1602.11 958.875 1622.18 978.961C1642.83 999.349 1659.27 1023.6 1670.56 1050.33C1673.36 1057.15 1675.86 1064.09 1677.96 1070.99V924.144H1756.62L1932.08 1195.23V924.144H2013.36V1078.77C2015.99 1068.84 2019.4 1059.1 2023.53 1049.63C2035.47 1022.44 2052.59 997.836 2073.92 977.183C2093.85 957.126 2117.67 941.358 2143.92 930.846C2169.71 920.763 2198.19 915.663 2229.49 915.663C2275.12 915.663 2314.64 926.854 2347.86 949.177C2381.06 971.501 2406.62 1004.11 2424.71 1047.07H2323.85C2312.35 1032.3 2297.54 1020.44 2280.6 1012.48C2264.02 1004.84 2245.43 1000.96 2224.82 1000.96C2188.51 1000.96 2157.77 1014.02 2132.5 1040.36C2107.26 1066.48 2094.58 1098.42 2094.58 1135.92C2094.58 1174.01 2107.35 1206.16 2132.88 1232.3C2158.44 1258.47 2189.91 1271.52 2227.15 1271.52C2253.03 1271.52 2276.49 1264.62 2297.56 1250.51C2318.44 1236.76 2334.72 1217.07 2344.31 1193.98H2177.58V1122.84L2442.55 1122.96V1122.96ZM1337.95 1132.63C1337.95 1150.96 1340.98 1167.92 1347.02 1183.63C1352.99 1199.34 1362.02 1213.79 1373.86 1226.82C1386.85 1240.9 1401.66 1251.82 1418.18 1259.52C1434.2 1267.08 1451.7 1271.02 1469.42 1271.06C1506.63 1271.06 1537.81 1257.8 1562.93 1231.34C1588.08 1205.02 1600.62 1172.09 1600.62 1132.57C1600.62 1096.38 1587.97 1065.51 1562.58 1039.96C1537.26 1014.4 1506.81 1001.66 1471.16 1001.66C1434.12 1001.66 1402.59 1014.43 1376.8 1039.9C1350.95 1065.43 1337.95 1096.32 1337.95 1132.63V1132.63ZM1101.84 1273.97H1126.87C1152.14 1273.97 1170.64 1269.72 1182.48 1261.27C1194.31 1252.79 1200.28 1239.76 1200.28 1222.04C1200.28 1202.86 1194.1 1188.23 1181.63 1178.27C1169.22 1168.39 1150.89 1163.43 1126.84 1163.43H1101.81V1273.97H1101.84V1273.97Z" fill="black"/>
</g>
<defs>
<clipPath id="clip0">
<rect width="2500" height="1357" fill="white"/>
</clipPath>
</defs>
</svg>
