<svg width="2500" height="392" viewBox="0 0 2500 392" fill="none" xmlns="http://www.w3.org/2000/svg">
<path fill-rule="evenodd" clip-rule="evenodd" d="M232.12 357.682C147.181 357.682 74.6799 280.641 74.6799 196.61C74.6799 112.89 145.663 34.3194 231.51 34.3194C287.942 34.3194 328.576 61.6208 361.649 104.395H403.204C390.766 81.9444 377.42 61.3224 357.097 45.2399C322.208 17.0307 277.008 0.351562 232.12 0.351562C124.432 0.351562 36.7693 89.2334 36.7693 196.312C36.7693 303.688 125.651 391.662 232.729 391.662C276.412 391.662 319.186 375.593 353.465 348.59C375.008 331.301 390.169 308.85 404.734 285.79H363.179C330.405 328.564 288.551 357.682 232.12 357.682ZM662.872 152.928C636.79 119.258 601.291 98.0268 557.311 98.0268C478.442 98.0268 413.528 162.046 413.528 240.915C413.528 319.771 478.753 384.386 557.311 384.386C603.12 384.386 634.961 365.269 662.872 330.082V378.005H697.151V104.693H662.872V152.928V152.928ZM555.495 352.831C495.121 352.831 447.496 300.355 447.496 241.213C447.496 182.356 494.823 129.582 555.495 129.582C615.856 129.582 662.872 182.369 662.872 241.213C662.872 300.355 615.545 352.831 555.495 352.831ZM738.706 378.005H775.423V8.22424H738.706V378.005ZM914.044 334.621L821.22 104.693H784.814L896.146 378.005H933.149L1044.18 104.693H1008.39L914.044 334.621V334.621ZM1059.34 378.005H1096.05V104.693H1059.34V378.005ZM1059.34 69.5064H1096.05V8.22424H1059.34V69.5064ZM1254.1 98.0139C1219.51 98.0139 1194.94 116.223 1172.19 140.49V104.693H1138.21V378.005H1174.31V211.46C1174.01 167.48 1210.4 129.569 1254.7 129.569C1310.19 129.569 1338.1 177.804 1338.1 227.556V378.018H1372.07V227.556C1372.08 156.572 1330.54 98.0139 1254.1 98.0139V98.0139ZM1712.75 8.22424L1545.91 220.267V8.22424H1509.81V378.005H1545.91V276.387L1593.23 217.543L1713.66 378.005H1759.48L1616.28 188.413L1759.48 8.22424H1712.75ZM1772.81 378.005H1808.62V8.22424H1772.81V378.005ZM2104.98 173.55C2080.1 127.131 2030.35 98.0139 1977.86 98.0139C1899.62 98.0139 1833.47 163.239 1833.47 241.498C1833.47 320.355 1900.21 384.373 1978.5 384.373C2015.79 384.373 2052.52 369.51 2079.49 343.726C2095.89 328.253 2105.59 308.837 2114.37 288.514H2075.86C2056.43 326.437 2022.15 352.818 1977.85 352.818C1950.87 352.818 1924.48 341.897 1904.47 323.389C1883.82 304.596 1874.73 281.523 1870.77 254.235H2122.88C2122.89 225.727 2118.94 198.426 2104.98 173.55ZM1872 222.692C1882.95 171.436 1923.27 129.569 1978.5 129.569C2024.9 129.569 2074.66 158.09 2085.58 222.692H1872ZM2149.58 378.005H2185.66V104.693H2149.58V378.005ZM2149.58 70.7255H2185.66V8.22424H2149.58V70.7255V70.7255ZM2344.34 98.0139C2309.12 98.0139 2284.56 116.223 2261.5 140.49V104.693H2226.92V378.005H2263.33V211.46C2263.03 167.182 2300.34 129.569 2344.92 129.569C2400.15 129.569 2429.28 177.804 2429.28 227.556V378.018H2463.24V227.556C2463.24 156.572 2421.07 98.0139 2344.34 98.0139V98.0139Z" fill="black"/>
</svg>
