<svg width="1200" height="574" viewBox="0 0 1200 574" fill="none" xmlns="http://www.w3.org/2000/svg">
<path fill-rule="evenodd" clip-rule="evenodd" d="M1019.44 467.997H1022.16C1023.54 467.997 1025.05 468.265 1025.05 470.015C1025.05 472.103 1023.39 472.195 1021.59 472.195H1019.44V467.997ZM1017.4 479.517H1019.44V473.838H1021.61L1025.2 479.517H1027.4L1023.63 473.691C1025.59 473.491 1027.1 472.487 1027.1 470.107C1027.1 467.569 1025.63 466.339 1022.49 466.339H1017.39V479.517H1017.4ZM1012.48 472.876C1012.48 467.489 1016.52 463.316 1021.79 463.316C1027.01 463.316 1031.06 467.486 1031.06 472.876C1031.06 478.394 1027.01 482.563 1021.79 482.563C1016.52 482.563 1012.48 478.394 1012.48 472.876ZM1010.43 472.876C1010.43 479.356 1015.61 484.224 1021.79 484.224C1023.28 484.232 1024.76 483.944 1026.14 483.376C1027.51 482.808 1028.77 481.972 1029.82 480.916C1030.87 479.86 1031.7 478.606 1032.27 477.226C1032.83 475.846 1033.11 474.367 1033.1 472.876C1033.1 466.513 1027.94 461.662 1021.79 461.662C1015.61 461.662 1010.43 466.513 1010.43 472.876ZM884.132 456.113V474.958H836.927V496.25H869.352C871.973 496.249 874.568 496.764 876.989 497.767C879.41 498.769 881.61 500.239 883.464 502.092C885.317 503.945 886.786 506.145 887.789 508.567C888.791 510.988 889.307 513.583 889.306 516.204V533.71C889.307 536.331 888.791 538.926 887.789 541.347C886.786 543.768 885.317 545.968 883.464 547.822C881.61 549.675 879.41 551.144 876.989 552.147C874.568 553.15 871.973 553.665 869.352 553.664H814.51V534.822H868.691V515.092H836.263C833.642 515.093 831.047 514.577 828.626 513.574C826.205 512.571 824.005 511.102 822.152 509.249C820.299 507.396 818.829 505.196 817.827 502.775C816.824 500.353 816.308 497.758 816.308 495.138V476.067C816.31 470.775 818.413 465.701 822.155 461.959C825.896 458.217 830.971 456.114 836.263 456.113H884.132ZM992.324 553.667H944.455C941.834 553.668 939.239 553.152 936.818 552.149C934.397 551.146 932.197 549.677 930.344 547.824C928.491 545.971 927.021 543.771 926.018 541.349C925.016 538.928 924.5 536.333 924.5 533.713V476.067C924.502 470.775 926.605 465.701 930.346 461.959C934.088 458.217 939.163 456.114 944.455 456.113H992.324V474.958H945.119V496.688H992.324V515.534H945.119V534.822H992.324V553.667ZM669.071 553.667H621.202C618.581 553.667 615.987 553.151 613.566 552.148C611.145 551.145 608.946 549.676 607.093 547.823C605.24 545.97 603.771 543.77 602.768 541.349C601.766 538.928 601.25 536.333 601.25 533.713V476.067C601.252 470.776 603.355 465.702 607.096 461.961C610.837 458.219 615.911 456.116 621.202 456.113H669.071V474.958H621.872V496.688H669.071V515.534H621.872V534.822H669.071V553.667ZM393.705 456.113H439.155C444.446 456.114 449.521 458.217 453.263 461.959C457.005 465.701 459.108 470.775 459.109 476.067V553.667H438.49V474.958H404.128V553.667H383.51V456.113H393.705ZM726.714 496.691H763.277V474.958H726.714V496.691ZM783.892 478.741V495.583C783.893 500.456 782.111 505.162 778.88 508.811C775.65 512.46 771.195 514.8 766.357 515.39L785.688 553.667H762.48L745.618 515.537H726.714V553.667H706.098V456.113H763.946C769.238 456.115 774.312 458.218 778.053 461.96C781.794 465.701 783.896 470.776 783.898 476.067V478.741H783.892ZM506.337 456.113L529.393 537.267L553.782 456.113H577.282L545.802 553.667H513.432L483.279 456.113H506.337ZM166.898 476.067C166.9 470.776 169.003 465.702 172.744 461.961C176.485 458.219 181.559 456.116 186.85 456.113H238.065V474.958H187.519V534.822H238.068V553.664H186.852C184.232 553.664 181.637 553.148 179.217 552.145C176.796 551.143 174.596 549.673 172.744 547.82C170.891 545.967 169.421 543.767 168.419 541.346C167.416 538.925 166.901 536.33 166.901 533.71V476.067H166.898ZM269.549 476.067C269.551 470.775 271.654 465.701 275.396 461.96C279.138 458.218 284.212 456.115 289.503 456.113H332.069C337.361 456.114 342.436 458.217 346.178 461.959C349.92 465.7 352.024 470.775 352.026 476.067V533.713C352.026 536.334 351.51 538.929 350.508 541.35C349.505 543.771 348.035 545.972 346.181 547.825C344.328 549.678 342.128 551.147 339.706 552.15C337.285 553.152 334.689 553.668 332.069 553.667H289.503C286.883 553.668 284.288 553.152 281.867 552.149C279.446 551.146 277.246 549.677 275.393 547.824C273.54 545.971 272.07 543.771 271.067 541.349C270.064 538.928 269.549 536.333 269.549 533.713V476.067ZM290.17 474.961H331.41V534.824H290.17V474.961ZM586.256 92.3877L612.771 173.999H698.58L629.159 224.426L655.677 306.051L586.256 255.609L516.836 306.051L543.35 224.426L473.933 173.999H559.739L586.256 92.3877ZM746.218 207.677C746.218 296.024 674.6 367.633 586.253 367.633C497.906 367.633 426.286 296.021 426.286 207.677C426.286 119.332 497.909 47.706 586.253 47.706C674.597 47.706 746.218 119.332 746.218 207.677V207.677ZM586.256 20.334C482.791 20.334 398.917 104.203 398.917 207.679C398.917 311.142 482.791 395.01 586.256 395.01C689.721 395.01 773.593 311.142 773.593 207.679C773.59 104.2 689.721 20.334 586.256 20.334Z" fill="black"/>
</svg>
