<svg width="60" height="60" viewBox="0 0 60 60" fill="none" xmlns="http://www.w3.org/2000/svg">
<path d="M30 0C13.44 0 0 13.44 0 30C0 46.56 13.44 60 30 60C46.53 60 60 46.56 60 30C60 13.44 46.53 0 30 0ZM49.815 13.83C53.5071 18.3279 55.5501 23.9531 55.605 29.772C54.762 29.61 46.302 27.885 37.776 28.959C37.581 28.536 37.416 28.08 37.224 27.624C36.6931 26.3731 36.1289 25.1367 35.532 23.916C44.967 20.076 49.263 14.544 49.815 13.83V13.83ZM30 4.425C36.51 4.425 42.462 6.864 46.986 10.869C46.53 11.517 42.657 16.692 33.546 20.109C29.349 12.399 24.696 6.084 23.979 5.109C25.9526 4.64762 27.9732 4.41807 30 4.425V4.425ZM19.101 6.834C22.5343 11.5929 25.706 16.5353 28.602 21.639C16.626 24.825 6.051 24.759 4.914 24.759C5.73848 20.8804 7.44782 17.2446 9.9087 14.1354C12.3696 11.0261 15.5155 8.52735 19.101 6.834V6.834ZM4.359 30.03V29.25C5.469 29.28 17.895 29.445 30.684 25.605C31.434 27.036 32.115 28.5 32.766 29.964C32.439 30.063 32.082 30.159 31.758 30.258C18.546 34.518 11.517 46.167 10.932 47.145C6.70152 42.4484 4.36091 36.351 4.362 30.03H4.359ZM30 55.641C24.3043 55.6507 18.77 53.7493 14.283 50.241C14.739 49.296 19.947 39.273 34.392 34.23C34.458 34.2 34.491 34.2 34.554 34.164C36.991 40.4502 38.8223 46.9547 40.023 53.589C36.8575 54.9511 33.4462 55.6495 30 55.641V55.641ZM44.283 51.246C44.025 49.686 42.657 42.201 39.306 32.994C47.343 31.725 54.372 33.807 55.248 34.101C54.7009 37.5603 53.4444 40.869 51.5574 43.8195C49.6704 46.77 47.1938 49.2984 44.283 51.246V51.246Z" fill="white"/>
</svg>
