<svg width="105" height="103" viewBox="0 0 105 103" fill="none" xmlns="http://www.w3.org/2000/svg">
<path d="M5.5537 25.6856C5.5537 34.4289 8.47085 40.7377 14.2175 44.4422C18.9293 47.4853 24.3895 47.9418 27.2307 47.9418C27.9205 47.9418 28.4759 47.9067 28.8617 47.8833C28.8617 47.8833 27.9614 53.759 32.3108 59.5644H32.1121C24.5766 59.5644 0 61.1387 0 81.3759C0 101.952 22.5714 103 27.1021 103C27.4587 103 27.6691 102.988 27.6691 102.988C27.7159 102.988 28.0374 103 28.5928 103C31.4982 103 39.0104 102.637 45.9846 99.237C55.0342 94.8478 59.6233 87.1872 59.6233 76.5009C59.6233 66.1775 52.6315 60.0326 47.528 55.5381C44.4121 52.7934 41.7171 50.429 41.7171 48.1291C41.7171 45.7882 43.6872 44.0267 46.1717 41.7969C50.1996 38.1978 53.9995 33.0653 53.9995 23.3623C53.9995 14.8355 52.8946 9.10614 46.084 5.47188C46.7914 5.10903 49.3052 4.84568 50.5445 4.67011C54.2333 4.16682 59.6292 3.5933 59.6292 0.579375V0H32.7434C32.4745 0.0117045 5.5537 1.00659 5.5537 25.6856V25.6856ZM48.9544 78.4322C49.4689 86.6605 42.4361 92.7293 31.8724 93.4959C21.145 94.286 12.3175 89.452 11.8031 81.2296C11.5517 77.2734 13.288 73.4109 16.6845 70.3268C20.1278 67.2075 24.8572 65.2763 30.0017 64.8959C30.6097 64.8607 31.2118 64.8256 31.8139 64.8256C41.7463 64.8315 48.4692 70.6721 48.9544 78.4322V78.4322ZM41.9334 20.0499C44.5699 29.3433 40.5888 39.0464 34.24 40.843C33.5092 41.0469 32.7538 41.1493 31.9952 41.1473C26.1842 41.1473 20.4259 35.2599 18.2863 27.1428C17.0937 22.6015 17.1931 18.6102 18.5611 14.7828C19.8998 11.0081 22.32 8.47409 25.3599 7.61381C26.0907 7.40898 26.8448 7.30364 27.6107 7.30364C34.6259 7.30364 39.139 10.2181 41.9334 20.0499V20.0499ZM87.462 39.7955V22.2386H75.77V39.7955H58.232V51.5H75.77V69.0568H87.462V51.5H105V39.7955H87.462Z" fill="white"/>
</svg>
