<svg width="2500" height="392" viewBox="0 0 2500 392" fill="none" xmlns="http://www.w3.org/2000/svg">
<path fill-rule="evenodd" clip-rule="evenodd" d="M2215.95 44.863H2289.14C2281.03 51.1533 2276.17 58.8573 2276.17 69.4018V321.417C2276.17 331.949 2281.24 339.458 2289.14 345.736H2215.95C2223.85 339.458 2228.71 331.754 2228.71 321.417V69.3888C2228.72 58.8444 2224.06 51.1404 2215.95 44.863ZM519.634 153.122C507.676 127.377 494.498 102.034 472.398 83.5907C448.884 63.721 419.066 51.763 388.25 51.763C306.346 51.763 269.641 125.755 269.641 198.542C269.641 268.903 304.725 340.055 383.788 340.055C416.018 340.055 447.457 326.073 467.314 300.718V243.949C467.314 228.541 462.242 218.619 450.284 209.501H534.017C525.094 219.631 519.634 229.967 519.634 243.949V300.718C481.308 336.41 433.67 358.29 380.753 358.29C287.293 358.29 210.849 289.563 210.849 193.873C210.849 98.7912 286.269 33.709 378.523 33.709C435.901 33.709 482.32 54.7979 519.634 97.1701V153.122ZM724.802 44.863H803.671C792.92 52.7616 789.275 61.6848 789.275 74.8621V258.76C789.275 309.226 848.469 333.972 891.866 333.972C934.446 333.972 989.995 309.044 989.995 259.772V74.8621C989.995 62.4889 986.947 53.9807 978.647 44.863H1021.63C1012.91 53.7862 1009.67 62.6965 1009.67 74.8621V259.772C1009.67 326.268 931.216 351.805 876.873 351.805C820.921 351.805 739.212 327.085 739.212 258.76V74.8621C739.199 62.2944 734.128 52.9691 724.802 44.863V44.863ZM1514.67 154.133C1504.14 127.571 1491.77 104.265 1470.07 85.0044C1446.76 64.3177 1418.37 51.3479 1386.96 51.3479C1305.87 51.3479 1264.31 122.305 1264.31 195.909C1264.31 269.901 1307.49 339.847 1387.57 339.847C1447.18 339.847 1489.76 297.877 1514.69 247.386V302.131C1477.61 338.836 1429.75 357.486 1377.44 357.486C1280.52 357.486 1207.94 294.842 1207.94 194.897C1207.94 97.7926 1277.68 33.9295 1372.77 33.9295C1425.48 33.9295 1476.56 52.1779 1514.67 88.4673V154.133ZM2023.15 154.133C2012.62 127.571 2000.22 104.265 1978.55 85.0044C1955.24 64.3177 1926.85 51.3479 1895.44 51.3479C1814.33 51.3479 1772.97 122.305 1772.97 195.909C1772.97 269.901 1815.95 339.847 1896.05 339.847C1955.66 339.847 1998.42 297.877 2023.17 247.386V302.131C1986.06 338.836 1938.41 357.486 1885.92 357.486C1789 357.486 1716.43 294.842 1716.43 194.897C1716.43 97.7926 1786.17 33.9295 1881.24 33.9295C1933.95 33.9295 1985.05 52.1779 2023.17 88.4673V154.133H2023.15Z" fill="black"/>
</svg>
