<svg width="75" height="75" viewBox="0 0 75 75" fill="none" xmlns="http://www.w3.org/2000/svg">
<path d="M66.6667 0H8.33333C3.75 0 0 3.75 0 8.33333V66.6667C0 71.2542 3.75 75 8.33333 75H66.6667C71.25 75 75 71.2542 75 66.6667V8.33333C75 3.75 71.25 0 66.6667 0ZM37.4333 60.5125C43.5536 60.5114 49.4228 58.0794 53.7501 53.7513C58.0774 49.4232 60.5083 43.5536 60.5083 37.4333C60.5083 36.025 60.3292 34.6667 60.0792 33.3333H66.6667V63.4C66.6667 63.7786 66.5919 64.1535 66.4466 64.5031C66.3014 64.8527 66.0885 65.1702 65.8202 65.4374C65.5519 65.7045 65.2335 65.916 64.8832 66.0597C64.533 66.2035 64.1578 66.2766 63.7792 66.275H11.2208C10.8422 66.2766 10.467 66.2035 10.1168 66.0597C9.76652 65.916 9.44811 65.7045 9.17982 65.4374C8.91152 65.1702 8.69863 64.8527 8.55337 64.5031C8.40811 64.1535 8.33333 63.7786 8.33333 63.4V33.3333H14.7875C14.5333 34.6667 14.3542 36.025 14.3542 37.4333C14.3553 43.554 16.7872 49.4236 21.1151 53.7515C25.4431 58.0795 31.3127 60.5114 37.4333 60.5125V60.5125ZM23.0125 37.4333C23.0125 35.5396 23.3855 33.6643 24.1102 31.9147C24.8349 30.1651 25.8972 28.5754 27.2363 27.2363C28.5754 25.8972 30.1651 24.8349 31.9147 24.1102C33.6643 23.3855 35.5396 23.0125 37.4333 23.0125C39.3271 23.0125 41.2023 23.3855 42.9519 24.1102C44.7016 24.8349 46.2913 25.8972 47.6304 27.2363C48.9695 28.5754 50.0317 30.1651 50.7564 31.9147C51.4812 33.6643 51.8542 35.5396 51.8542 37.4333C51.8542 41.258 50.3348 44.926 47.6304 47.6304C44.926 50.3348 41.258 51.8542 37.4333 51.8542C33.6087 51.8542 29.9407 50.3348 27.2363 47.6304C24.5318 44.926 23.0125 41.258 23.0125 37.4333V37.4333ZM63.7792 20.8333H57.05C56.286 20.8311 55.5539 20.5266 55.0136 19.9864C54.4733 19.4461 54.1689 18.714 54.1667 17.95V11.2125C54.1667 9.62083 55.4583 8.33333 57.0458 8.33333H63.775C65.375 8.33333 66.6667 9.62083 66.6667 11.2125V17.9458C66.6667 19.5333 65.375 20.8333 63.7792 20.8333Z" fill="white"/>
</svg>
