<svg width="2500" height="1070" viewBox="0 0 2500 1070" fill="none" xmlns="http://www.w3.org/2000/svg">
<g clip-path="url(#clip0)">
<path fill-rule="evenodd" clip-rule="evenodd" d="M36.7563 -0.275391L269.123 1017.92C502.41 883.316 983.017 836.119 1250.29 1018.56C1517.63 836.508 1997.72 883.394 2230.86 1017.92L2463.23 -0.275391H36.7563Z" fill="black"/>
<path fill-rule="evenodd" clip-rule="evenodd" d="M338.174 247.603V630.276H606.051V540.434H466.289V247.603H338.174V247.603ZM1014.31 248.225H1157.05L1253.32 505.273L1346.27 248.225H1487.35L1326.37 629.653H1176.97L1014.31 248.225ZM1522.96 247.862V630.016H1650.93V247.862H1522.96ZM822.361 241.261C705.192 241.261 622.095 263.685 622.095 441.436C622.095 587.618 657.826 648.265 827.341 648.265C1008.49 648.265 1011.82 562.703 1016.8 522.004H888.831C888.831 554.403 856.419 568.514 823.178 568.514C813.204 568.514 752.545 576.827 752.545 478.802H1016.79C1018.45 464.678 1016.83 410.646 1015.96 402.384C1006.84 316.018 998.529 240.431 822.361 241.261ZM1990.43 241.702C2094.95 241.702 2161.32 280.65 2169.6 365.174H2036.89C2036.89 346.951 2023.62 312.971 1985.44 312.971C1947.29 312.971 1926.54 325.396 1926.54 353.566C1926.54 383.396 1943.97 390.854 1957.24 394.174C1963.88 395.834 2043.52 407.429 2070.04 410.75C2089.79 413.214 2171.24 417.377 2169.6 500.241C2167.92 583.118 2116.5 634.491 1987.11 634.491C1857.69 634.491 1796.31 589.745 1796.31 516.829H1929.04C1929.85 542.509 1943.96 561.575 1985.44 561.575C2026.93 561.575 2048.48 543.391 2048.48 515.169C2048.48 493.613 2029.4 482.018 2008.67 480.358C1995.04 479.269 1908.31 478.698 1866.83 460.463C1829.84 444.212 1787.47 419.167 1794.67 356.043C1802.95 283.14 1856.04 241.702 1990.43 241.702V241.702ZM1790.41 254.256C1790.71 283.335 1788.23 302.439 1749.17 324.047C1751.67 318.405 1759.35 306.589 1758.1 298.652C1751.53 301.172 1744.55 302.456 1737.51 302.439C1708.3 302.439 1684.64 280.87 1684.64 254.269C1684.64 227.668 1708.3 206.1 1737.51 206.1C1766.75 206.087 1790.41 227.655 1790.41 254.256Z" fill="white"/>
<path fill-rule="evenodd" clip-rule="evenodd" d="M755.009 398.142H892.216C893.046 345.757 873.086 317.496 822.361 317.496C776.63 317.496 755.009 346.6 755.009 398.142ZM2146.7 1027.43C2144.4 1025.07 2141.63 1023.21 2138.58 1021.95C2135.53 1020.69 2132.25 1020.08 2128.95 1020.13C2122.06 1020.13 2116.16 1022.57 2111.3 1027.43C2108.93 1029.72 2107.06 1032.47 2105.8 1035.51C2104.54 1038.55 2103.91 1041.82 2103.96 1045.11C2103.96 1052.08 2106.39 1058 2111.23 1062.89C2116.12 1067.81 2122.02 1070.27 2128.96 1070.27C2135.9 1070.27 2141.83 1067.81 2146.72 1062.89C2151.61 1057.98 2154.03 1052.05 2154.03 1045.11C2154.08 1041.82 2153.46 1038.56 2152.2 1035.51C2150.94 1032.47 2149.07 1029.72 2146.7 1027.43V1027.43ZM2144.19 1060.48C2140.01 1064.71 2134.91 1066.82 2128.94 1066.82C2122.96 1066.82 2117.86 1064.71 2113.66 1060.48C2111.64 1058.47 2110.04 1056.07 2108.97 1053.43C2107.9 1050.79 2107.38 1047.96 2107.43 1045.11C2107.43 1039.15 2109.51 1034.06 2113.71 1029.85C2117.91 1025.62 2122.98 1023.51 2128.94 1023.51C2134.89 1023.51 2139.99 1025.62 2144.19 1029.85C2148.39 1034.06 2150.46 1039.15 2150.46 1045.11C2150.48 1051.12 2148.39 1056.24 2144.19 1060.48V1060.48Z" fill="black"/>
<path fill-rule="evenodd" clip-rule="evenodd" d="M2140.12 1058.46C2139.99 1058.23 2139.91 1057.75 2139.86 1057.03C2139.8 1056.32 2139.78 1055.63 2139.78 1054.98V1052.97C2139.73 1051.43 2139.21 1049.94 2138.29 1048.71C2137.73 1047.95 2137.02 1047.32 2136.21 1046.85C2135.39 1046.39 2134.49 1046.1 2133.55 1046.01C2134.96 1045.84 2136.31 1045.39 2137.53 1044.67C2139.34 1043.52 2140.24 1041.7 2140.24 1039.25C2140.24 1035.79 2138.83 1033.47 2135.99 1032.27C2134.4 1031.62 2131.89 1031.29 2128.47 1031.29H2118.84V1058.81H2123.68V1047.95H2127.51C2130.09 1047.95 2131.89 1048.25 2132.9 1048.84C2134.65 1049.86 2135.51 1051.96 2135.51 1055.15V1057.33L2135.61 1058.21L2135.67 1058.51C2135.69 1058.6 2135.72 1058.69 2135.74 1058.78H2140.28L2140.12 1058.46V1058.46ZM2132.67 1043.95C2131.19 1044.43 2129.63 1044.64 2128.07 1044.57H2123.68V1034.59H2127.81C2130.49 1034.59 2132.44 1034.93 2133.68 1035.62C2134.9 1036.31 2135.51 1037.64 2135.51 1039.65C2135.5 1041.77 2134.54 1043.21 2132.67 1043.95V1043.95Z" fill="black"/>
</g>
<defs>
<clipPath id="clip0">
<rect width="2500" height="1070" fill="white"/>
</clipPath>
</defs>
</svg>
