<svg width="1398" height="560" viewBox="0 0 1398 560" fill="none" xmlns="http://www.w3.org/2000/svg">
<path fill-rule="evenodd" clip-rule="evenodd" d="M255.465 0.65332L512.758 425H392.587L255.434 559.575L120.858 425H0.319336L255.465 0.65332ZM136.429 412.286L245.5 521.358V82.1456L136.429 412.286ZM265.5 81.0369V521.678L377.023 412.252L265.5 81.0369ZM395.685 405H477.243L293.834 102.51L395.685 405ZM217.893 101.953L35.6815 405H117.773L217.893 101.953Z" fill="url(#paint0_linear)"/>
<path d="M650.78 163.009V207.636H688.376V216.042H650.78V333.417C650.78 345.134 652.665 353.794 656.435 359.398C660.306 365.002 666.725 367.804 675.691 367.804C680.174 367.804 685.625 367.345 692.044 366.428L693.42 374.223C690.058 375.445 684.301 376.057 676.15 376.057C664.127 376.057 655.518 372.745 650.321 366.123C645.125 359.398 642.476 348.853 642.374 334.486V216.042H611.808V207.636H642.374V163.009H650.78ZM841.282 373C839.244 365.97 838.225 355.883 838.225 342.739C831.704 353.336 822.789 361.538 811.48 367.345C800.17 373.153 787.383 376.057 773.119 376.057C757.836 376.057 745.507 371.93 736.133 363.677C726.862 355.322 722.226 344.471 722.226 331.124C722.226 315.943 729.052 303.818 742.705 294.75C756.46 285.58 774.698 280.893 797.419 280.689H838.225V256.542C838.225 242.685 833.844 231.936 825.082 224.294C816.421 216.653 803.991 212.832 787.791 212.832C772.711 212.832 760.128 216.704 750.041 224.447C739.954 232.191 734.911 241.768 734.911 253.18L726.658 252.874C726.658 239.425 732.567 228.013 744.386 218.64C756.205 209.266 770.673 204.579 787.791 204.579C805.621 204.579 819.783 209.062 830.278 218.028C840.772 226.893 846.172 239.425 846.478 255.625V334.639C846.478 352.775 847.905 365.104 850.757 371.625V373H841.282ZM773.119 367.957C788.606 367.957 801.902 364.492 813.008 357.564C824.216 350.636 832.621 340.905 838.225 328.373V289.095H800.017C776.379 289.095 758.294 293.782 745.762 303.156C735.573 310.797 730.479 320.324 730.479 331.735C730.479 341.822 734.503 350.381 742.552 357.411C750.602 364.441 760.79 367.957 773.119 367.957ZM913.339 207.636V392.715C913.339 407.999 909.518 419.665 901.877 427.714C894.235 435.763 883.537 439.788 869.782 439.788C864.789 439.788 859.797 438.769 854.804 436.731L855.263 428.784C860.154 430.618 864.993 431.535 869.782 431.535C881.193 431.535 889.905 428.121 895.916 421.295C902.03 414.57 905.086 405.044 905.086 392.715V207.636H913.339ZM901.571 155.979C901.571 153.635 902.386 151.648 904.016 150.018C905.647 148.286 907.633 147.42 909.977 147.42C912.32 147.42 914.307 148.286 915.937 150.018C917.669 151.648 918.535 153.635 918.535 155.979C918.535 158.322 917.669 160.309 915.937 161.939C914.307 163.569 912.32 164.384 909.977 164.384C907.633 164.384 905.647 163.569 904.016 161.939C902.386 160.309 901.571 158.322 901.571 155.979ZM1081.07 373C1079.03 365.97 1078.01 355.883 1078.01 342.739C1071.49 353.336 1062.58 361.538 1051.27 367.345C1039.96 373.153 1027.17 376.057 1012.91 376.057C997.623 376.057 985.294 371.93 975.921 363.677C966.649 355.322 962.013 344.471 962.013 331.124C962.013 315.943 968.84 303.818 982.493 294.75C996.247 285.58 1014.49 280.893 1037.21 280.689H1078.01V256.542C1078.01 242.685 1073.63 231.936 1064.87 224.294C1056.21 216.653 1043.78 212.832 1027.58 212.832C1012.5 212.832 999.915 216.704 989.828 224.447C979.742 232.191 974.698 241.768 974.698 253.18L966.445 252.874C966.445 239.425 972.355 228.013 984.174 218.64C995.993 209.266 1010.46 204.579 1027.58 204.579C1045.41 204.579 1059.57 209.062 1070.07 218.028C1080.56 226.893 1085.96 239.425 1086.27 255.625V334.639C1086.27 352.775 1087.69 365.104 1090.54 371.625V373H1081.07ZM1012.91 367.957C1028.39 367.957 1041.69 364.492 1052.8 357.564C1064 350.636 1072.41 340.905 1078.01 328.373V289.095H1039.8C1016.17 289.095 998.081 293.782 985.549 303.156C975.36 310.797 970.266 320.324 970.266 331.735C970.266 341.822 974.291 350.381 982.34 357.411C990.389 364.441 1000.58 367.957 1012.91 367.957ZM1261.03 373H1252.77V261.891C1252.67 245.283 1249 232.955 1241.77 224.906C1234.64 216.755 1223.23 212.679 1207.53 212.679C1189.4 212.679 1174.57 220.677 1163.06 236.674C1156.23 246.251 1151.7 256.848 1149.46 268.463V373H1141.05V207.636H1149.46V246.761C1155.06 233.312 1163.06 222.919 1173.45 215.583C1183.85 208.247 1195.36 204.579 1207.99 204.579C1221.85 204.579 1233.16 207.636 1241.92 213.749C1250.79 219.862 1256.59 229.847 1259.34 243.704C1264.24 231.783 1272.18 222.308 1283.19 215.277C1294.19 208.145 1306.52 204.579 1320.17 204.579C1338 204.579 1351.25 209.623 1359.91 219.709C1368.67 229.796 1373.1 244.927 1373.2 265.101V373H1364.95V265.712C1364.95 247.576 1361.28 234.178 1353.95 225.517C1346.71 216.755 1335.3 212.475 1319.71 212.679C1299.64 212.985 1283.75 220.983 1272.03 236.674C1265.31 245.742 1261.64 254.504 1261.03 262.961V373Z" fill="url(#paint1_linear)"/>
<defs>
<linearGradient id="paint0_linear" x1="18.0004" y1="283" x2="495" y2="287.5" gradientUnits="userSpaceOnUse">
<stop stop-color="#00E0D0"/>
<stop offset="1" stop-color="#4AA3CC"/>
</linearGradient>
<linearGradient id="paint1_linear" x1="606" y1="266" x2="1398" y2="266" gradientUnits="userSpaceOnUse">
<stop stop-color="#00E0D0"/>
<stop offset="1" stop-color="#4AA3CC"/>
</linearGradient>
</defs>
</svg>
