<svg width="2500" height="437" viewBox="0 0 2500 437" fill="none" xmlns="http://www.w3.org/2000/svg">
<path d="M2487.65 220.091C2487.65 103.281 2381.59 12.6582 2251.38 12.6582C2125.27 12.6582 2014.49 99.1016 2014.49 213.764C2014.49 321.943 2101.5 408.59 2218.69 422.372V356.895C2142.03 344.265 2084.08 286.991 2084.08 218.08C2084.08 139.951 2158.57 76.5079 2250.48 76.5079C2342.39 76.5079 2416.9 139.951 2416.9 218.08C2416.9 286.471 2359.88 343.362 2284.08 356.579V422.168C2396.57 408.499 2487.65 325.061 2487.65 220.091V220.091ZM1736.88 360.827C1664.58 360.827 1603.01 321.694 1580.08 266.86H1506.06C1530.55 361.324 1626.74 424.337 1740.99 424.337C1767.49 424.337 1798.04 421.739 1823.37 415.413C1880.58 401.269 1943.02 364.103 1943.02 305.45V201.315H1736.16L1735.93 266.86H1876.87V296.615C1876.87 329.489 1827.8 348.513 1797.72 355.178C1781.57 358.771 1760.78 360.827 1744.09 360.827H1736.88ZM1877.03 132.54C1845.65 99.9827 1797.25 79.1288 1742.98 79.1288C1656.4 79.1288 1584.82 132.314 1573.39 201.315H1500.87C1510.33 94.2214 1619.91 15.2791 1743.88 15.2791C1817.65 15.2791 1883.85 42.7304 1928.47 86.901L1877.03 132.54V132.54ZM1098.72 23.8873H1031.71V415.594H1097.59V122.893L1367.61 415.594H1416.68V367.966L1098.72 23.8873ZM1416.68 23.8873H1350.78V214.126L1416.68 280.258V23.9098V23.8873ZM837.991 294.13L898.768 415.594H978.004L779.225 23.9098H707.806L707.761 24.0228L807.286 231.726H675.045L709.591 164.036L673.599 90.4256L506.113 415.594H580.152L642.804 294.175L838.014 294.153L837.991 294.13ZM78.776 23.9098H12.3506V415.594H78.2111V146.3L227.759 385.409L265.852 324.406L78.7986 23.9098H78.776ZM263.095 207.732L301.007 267.854L377.261 146.3V415.571H442.963V23.9098H375.928L263.095 207.732" fill="black"/>
</svg>
