<svg width="65" height="90" viewBox="0 0 65 90" fill="none" xmlns="http://www.w3.org/2000/svg">
<path d="M32.4864 13.0171C29.3611 13.0171 26.306 13.9439 23.7074 15.6802C21.1088 17.4165 19.0834 19.8844 17.8874 22.7718C16.6914 25.6593 16.3785 28.8365 16.9882 31.9017C17.5979 34.967 19.1029 37.7826 21.3128 39.9926C23.5228 42.2025 26.3384 43.7075 29.4037 44.3172C32.4689 44.9269 35.6461 44.614 38.5336 43.418C41.421 42.222 43.8889 40.1966 45.6252 37.598C47.3615 34.9994 48.2883 31.9443 48.2883 28.819C48.2883 24.628 46.6235 20.6088 43.66 17.6453C40.6966 14.6819 36.6774 13.0171 32.4864 13.0171V13.0171ZM32.4864 39.1053C30.452 39.1053 28.4632 38.5021 26.7716 37.3718C25.08 36.2415 23.7616 34.635 22.9831 32.7554C22.2045 30.8758 22.0008 28.8075 22.3977 26.8122C22.7946 24.8168 23.7743 22.984 25.2129 21.5454C26.6514 20.1068 28.4843 19.1271 30.4797 18.7302C32.475 18.3333 34.5433 18.537 36.4229 19.3156C38.3025 20.0941 39.909 21.4126 41.0393 23.1041C42.1695 24.7957 42.7728 26.7845 42.7728 28.819C42.7655 31.5423 41.6786 34.1516 39.7503 36.0747C37.822 37.9978 35.2098 39.0778 32.4864 39.0778V39.1053Z" fill="white"/>
<path d="M32.4862 2.72995e-09C23.8964 0.00717447 15.6584 3.41322 9.57159 9.47421C3.48477 15.5352 0.0437111 23.7586 0 32.3483C0 45.227 7.22529 56.0098 12.5202 63.8693L13.4854 65.3033C18.7534 72.9385 24.4048 80.3019 30.4179 87.3653L32.5138 89.8197L34.6097 87.3653C40.622 80.3013 46.2734 72.9379 51.5422 65.3033L52.5074 63.8417C57.7747 55.9822 65 45.227 65 32.3483C64.9563 23.7538 61.5114 15.5263 55.4186 9.46449C49.3258 3.40272 41.0808 -0.000111292 32.4862 2.72995e-09V2.72995e-09ZM47.902 60.6703L46.9092 62.1319C42.1659 69.2469 35.8782 77.2168 32.4862 81.1604C29.2321 77.2168 22.8065 69.2469 18.0632 62.1319L17.098 60.6703C12.2168 53.3899 5.51549 43.4344 5.51549 32.238C5.51549 28.6962 6.21311 25.189 7.56851 21.9168C8.92392 18.6445 10.9106 15.6713 13.415 13.1668C15.9195 10.6624 18.8927 8.67572 22.165 7.32031C25.4372 5.96491 28.9444 5.26729 32.4862 5.26729C36.0281 5.26729 39.5352 5.96491 42.8075 7.32031C46.0797 8.67572 49.0529 10.6624 51.5574 13.1668C54.0619 15.6713 56.0485 18.6445 57.4039 21.9168C58.7593 25.189 59.4569 28.6962 59.4569 32.238C59.4569 43.5448 52.7832 53.5002 47.902 60.6703V60.6703Z" fill="white"/>
</svg>
