<svg width="2500" height="936" viewBox="0 0 2500 936" fill="none" xmlns="http://www.w3.org/2000/svg">
<path fill-rule="evenodd" clip-rule="evenodd" d="M554.34 145.04C426.186 295.541 303.31 482.176 302.078 621.679C301.598 674.168 318.355 719.99 358.549 754.697C416.394 804.683 480.127 822.308 543.549 822.412C636.231 822.542 728.265 785.15 800.325 756.318C921.683 707.785 2263.18 125.222 2263.18 125.222C2276.13 118.738 2273.7 110.657 2257.5 114.691C2250.97 116.325 797.069 510.334 797.069 510.334C769.53 518.122 741.073 522.196 712.455 522.447C600.72 523.109 501.294 461.088 502.098 330.391C502.409 279.251 518.064 217.58 554.34 145.04V145.04Z" fill="black"/>
</svg>
