<svg width="208" height="208" viewBox="0 0 208 208" fill="none" xmlns="http://www.w3.org/2000/svg">
<path d="M156.595 4.82258C148.654 15.7258 139.321 29.7043 128.594 46.7581C125.947 51.2312 126.365 56.7527 129.848 63.3226C130.962 65.5591 134.306 71.7796 139.878 81.9839C138.764 83.6613 137.475 85.4086 136.012 87.2258C134.549 89.043 132.982 90.9651 131.311 92.9919C129.639 95.0188 127.828 97.0806 125.878 99.1774C123.927 101.274 121.872 103.476 119.713 105.782C117.554 108.089 115.29 110.43 112.922 112.806C100.663 125.108 90.4931 134.194 82.4132 140.065C73.3581 134.753 67.1589 131.258 63.8155 129.581C60.3328 127.624 56.9894 126.645 53.7853 126.645C51.2777 126.645 49.1184 127.204 47.3074 128.323C34.9089 135.871 20.8388 145.237 5.09688 156.419C2.3107 158.656 0.638999 161.591 0.0817638 165.226C-0.336162 169 0.847962 173.054 3.63414 177.387C4.74861 179.065 6.90789 181.86 10.112 185.774C13.0375 189.409 17.4605 194.021 23.3811 199.613C29.3018 205.204 34.1427 208 37.9041 208H38.322C52.6708 207.441 68.6216 201.78 86.1745 191.016C103.727 180.253 122.952 164.457 143.848 143.629C185.502 101.694 206.886 66.3978 208 37.7419C208 33.9677 205.214 29.0054 199.641 22.8548C194.208 16.9839 189.681 12.5806 186.059 9.64516C182.437 6.84946 179.511 4.6828 177.282 3.14516C174.357 1.04839 170.944 0 167.043 0C162.585 0 159.103 1.60753 156.595 4.82258ZM169.969 13.4194C175.402 17.3333 180.695 21.8763 185.85 27.0484C190.865 32.0806 193.791 35.7849 194.626 38.1613C193.512 63.3226 173.486 95.4032 134.549 134.403C95.6127 173.403 63.5369 193.602 38.322 195C36.2324 194.161 32.68 191.156 27.6649 185.984C22.6498 180.812 18.1222 175.43 14.0823 169.839C13.6644 169.28 13.3857 168.755 13.2464 168.266C13.1071 167.777 13.1071 167.323 13.2464 166.903C29.2669 155.72 42.7799 146.634 53.7853 139.645C54.8997 139.645 56.2928 140.065 57.9645 140.903C58.5218 141.183 60.7507 142.441 64.6513 144.677C68.552 146.914 72.383 149.011 76.1443 150.968L83.0401 155.161L89.9359 150.548C98.7123 144.538 109.509 134.962 122.325 121.823C134.863 109.102 144.266 98.2688 150.535 89.3226L155.55 82.8226L151.371 75.4839C146.217 66.1183 142.873 60.0376 141.341 57.2419C140.505 55.5645 140.087 54.1667 140.087 53.0484C144.824 45.5 149.421 38.336 153.879 31.5565C158.336 24.7769 162.585 18.4516 166.625 12.5806H167.043C168.158 12.5806 169.133 12.8602 169.969 13.4194Z" fill="white"/>
</svg>
