<svg width="1200" height="568" viewBox="0 0 1200 568" fill="none" xmlns="http://www.w3.org/2000/svg">
<path d="M635.967 56.117C632.945 56.5631 630.04 67.6862 624.203 73.4831C619.939 77.6585 614.603 77.4062 611.779 82.5754C610.702 84.4985 611.05 87.8001 609.837 90.957C607.447 97.2924 599.065 97.8554 599.065 104.751C599.034 112.203 606.05 113.619 612.139 118.914C616.89 123.16 617.345 126.092 623.093 128.16C628.01 129.822 635.314 124.375 641.893 126.335C647.283 127.935 652.45 129.092 653.674 134.64C654.751 139.76 653.597 147.677 647.05 146.763C644.843 146.511 635.265 143.295 623.523 144.548C609.333 146.16 593.148 150.785 591.563 166.609C590.69 175.44 601.628 185.862 612.188 183.742C619.48 182.314 616.034 173.699 619.997 169.523C625.213 164.16 654.751 188.222 682.194 188.222C693.751 188.222 702.348 185.299 710.887 176.36C711.687 175.671 712.656 174.212 713.89 174.114C715.056 174.212 717.083 175.36 717.754 175.846C739.853 193.612 756.57 229.262 837.825 229.668C849.259 229.735 862.265 235.197 872.902 244.889C882.382 253.652 887.917 267.299 893.311 281.132C901.45 301.889 916.01 322.086 938.111 344.551C939.311 345.757 957.508 359.899 958.963 360.951C959.188 361.114 960.53 364.299 960.062 366.077C959.527 379.56 957.567 418.735 986.776 420.514C993.914 420.871 992.05 415.849 992.05 412.403C992.031 405.572 990.788 398.794 994.379 391.8C999.296 382.194 983.948 377.772 984.394 356.994C984.714 341.502 971.699 344.145 965.102 332.342C961.296 325.505 957.914 321.88 958.157 313.517C959.643 266.455 948.142 235.526 942.413 227.929C937.936 222.2 934.234 219.926 938.32 217.274C962.705 201.16 968.231 186.191 968.231 186.191C981.2 155.72 992.856 127.889 1008.93 115.631C1012.16 113.095 1020.47 106.899 1025.56 104.471C1040.57 97.397 1048.46 93.1047 1052.82 88.8708C1059.7 82.157 1065.16 68.1416 1058.55 59.6493C1050.33 49.1693 1036.12 57.4831 1029.86 61.2062C985.037 87.8001 978.431 134.717 962.908 161.665C950.523 183.188 930.385 199.003 912.379 200.295C898.896 201.295 884.336 198.566 869.853 192.203C834.622 176.757 815.348 156.819 810.782 153.289C801.32 145.985 727.847 73.8431 668.302 70.8985C668.302 70.8985 660.911 56.0954 659.056 55.8616C654.705 55.2985 650.247 64.6924 647.05 65.7908C644.047 66.7816 638.997 55.6185 635.967 56.1139V56.117ZM373.862 486.652C368.259 486.517 363.499 481.923 363.499 476.24L363.517 290.517H302.302V495.231C302.302 505.274 310.431 513.452 320.41 513.452H427.385C437.428 513.452 445.462 505.274 445.462 495.231V290.514H384.305L384.256 476.24C384.256 481.923 379.496 486.517 373.862 486.652V486.652ZM578.791 290.517H486.163C475.185 290.517 466.259 299.431 466.259 310.505V513.452H527.533V327.292C527.541 325.941 527.816 324.605 528.341 323.36C528.866 322.115 529.631 320.986 530.592 320.037C531.554 319.088 532.693 318.337 533.944 317.828C535.196 317.319 536.535 317.062 537.887 317.071C543.6 317.071 548.194 321.483 548.317 327.135V513.452H609.333V327.135C609.41 321.483 613.994 317.074 619.705 317.074C625.357 317.074 630.043 321.588 630.08 327.289V513.452H691.354V310.505C691.354 299.431 682.397 290.514 671.44 290.514H578.794L578.791 290.517ZM261.477 457.434H199.634V513.452H138.462V290.517H261.865C272.911 290.517 281.536 299.492 281.536 310.597V437.339C281.543 439.977 281.029 442.591 280.024 445.03C279.019 447.469 277.542 449.686 275.678 451.553C273.815 453.421 271.6 454.902 269.163 455.911C266.725 456.921 264.113 457.439 261.474 457.437L261.477 457.434ZM220.397 327.68C220.416 326.302 220.162 324.934 219.65 323.655C219.139 322.375 218.38 321.209 217.417 320.223C216.454 319.238 215.306 318.452 214.038 317.911C212.771 317.37 211.409 317.084 210.031 317.071H199.637V429.828H210.031C215.434 429.828 220.447 425.535 220.397 419.357V327.68" fill="black"/>
<path d="M794.055 513.452V457.483H773.258V513.452H712.11V310.504C712.11 299.431 721.036 290.514 732.015 290.514H835.307C846.304 290.514 855.221 299.431 855.221 310.504V513.452H794.055ZM794.055 429.867V327.212C793.91 321.541 789.344 317.181 783.633 317.181C777.978 317.181 773.317 321.714 773.258 327.378V429.867H794.055" fill="black"/>
</svg>
