<svg width="71" height="57" viewBox="0 0 71 57" fill="none" xmlns="http://www.w3.org/2000/svg">
<path d="M71 6.74033C68.3389 7.90661 65.5204 8.67133 62.6362 9.00964C65.6635 7.22566 67.9401 4.39659 69.0404 1.05103C66.172 2.72657 63.0435 3.90674 59.7855 4.54227C58.4137 3.1002 56.7634 1.95372 54.9354 1.17279C53.1074 0.391861 51.14 -0.00715117 49.1533 9.70042e-05C41.109 9.70042e-05 34.5876 6.44821 34.5876 14.3926C34.5876 15.5183 34.7154 16.6191 34.9639 17.6701C29.1937 17.3947 23.544 15.9152 18.3754 13.3261C13.2068 10.737 8.63274 7.09508 4.94515 2.63278C3.65233 4.82158 2.97282 7.32024 2.97845 9.86464C2.98092 12.2443 3.57424 14.5858 4.70478 16.6775C5.83532 18.7693 7.46744 20.5454 9.45365 21.8453C7.14432 21.7705 4.88488 21.1518 2.85775 20.0391V20.2172C2.85775 27.1926 7.881 33.0101 14.5372 34.3354C13.2863 34.6685 11.9975 34.8373 10.7032 34.8377C9.7625 34.8377 8.85015 34.7486 7.9591 34.5705C8.9108 37.4487 10.732 39.9581 13.1699 41.7501C15.6077 43.5422 18.5411 44.5279 21.5627 44.5704C16.3799 48.5766 10.0175 50.7408 3.47545 50.7228C2.29685 50.7228 1.13955 50.6516 0 50.5233C6.67845 54.7652 14.4222 57.0116 22.3259 57C49.1178 57 63.7651 35.0657 63.7651 16.0456L63.7154 14.1824C66.5726 12.1648 69.0409 9.64321 71 6.74033V6.74033Z" fill="white"/>
</svg>
