<svg width="124" height="93" viewBox="0 0 124 93" fill="none" xmlns="http://www.w3.org/2000/svg">
<path d="M123.203 20.5345C123.203 9.63638 115.186 0.869429 105.279 0.869429C91.8602 0.24218 78.1749 0 64.1893 0H59.8293C45.8776 0 32.168 0.242181 18.7492 0.871851C8.86665 0.871851 0.849236 9.68724 0.849236 20.5854C0.243691 29.2046 -0.0130601 37.8262 0.00147295 46.4479C-0.0227489 55.0695 0.251765 63.6992 0.825014 72.337C0.825014 83.2352 8.84243 92.0748 18.7249 92.0748C32.822 92.7287 47.2824 93.0193 61.9851 92.995C76.7119 93.0435 91.132 92.7367 105.245 92.0748C115.152 92.0748 123.169 83.2352 123.169 72.337C123.751 63.6912 124.017 55.0695 123.993 46.4237C124.048 37.802 123.785 29.1723 123.203 20.5345ZM50.1406 70.2058V22.6173L85.2622 46.3994L50.1406 70.2058Z" fill="white"/>
</svg>
