<svg width="3764" height="511" viewBox="0 0 3764 511" fill="none" xmlns="http://www.w3.org/2000/svg">
<g clip-path="url(#clip0)">
<path d="M624.957 442.357C624.957 475.59 583.378 502.565 552.066 502.565H198.009L643.338 28H47.9176V106.643H78.4682C78.4682 73.4101 110.667 46.5192 142.105 46.5192H447.991L0 521H646V442.357H624.957Z" fill="black"/>
<path d="M1582.06 481.199L1254.92 9.99219L955.105 481.55C949.809 491.892 920.922 504.952 880 504.952V520.905H1039.6V504.952C1009.99 504.952 978.214 494.259 985.917 481.462L1058.01 367.605H1334.6L1413.19 481.199C1422.1 492.681 1382.26 505.04 1341.22 505.04V520.992H1673.41L1673.53 505.04C1623.22 504.952 1592.53 493.558 1582.06 481.199ZM1070.05 349.198L1189.69 157.946L1323.29 349.198H1070.05Z" fill="black"/>
<path d="M1955 29.7213C2008.3 29.7213 2052.37 38.8369 2052.37 49.8808C2052.37 137.531 2052.11 480.681 2052.37 480.681C2052.37 492.426 2008.96 505.486 1955.53 505.486L1955.4 520.912H2311.9V506.538C2258.99 506.538 2216.11 492.514 2216.11 480.769V25.4264H2318.89C2417.85 25.4264 2498.06 80.0324 2498.06 142.001C2498.06 203.97 2417.85 254.281 2318.76 254.281H2247.64C2247.64 254.281 2488.56 496.633 2488.96 496.633C2498.46 505.836 2503.21 521 2503.21 521H2763V506.625C2712.99 506.625 2686.87 492.864 2672.36 480.769L2440.41 279.699C2551.76 274.791 2637.92 215.014 2637.92 144.017C2637.92 69.865 2542 10 2423.65 10H1955V29.7213Z" fill="black"/>
<path d="M3695.06 481.199L3367.92 9.99219L3068.1 481.55C3062.81 491.892 3034.04 505.478 2993 505.478V520.905H3152.6V506.53C3122.99 506.53 3091.33 494.259 3098.92 481.462L3171.01 367.605H3447.6L3526.19 481.199C3535.22 492.681 3495.26 505.566 3454.22 505.566V520.992H3786.41L3786.53 506.092C3736.22 506.092 3705.53 493.558 3695.06 481.199ZM3182.93 349.198L3302.57 157.946L3436.17 349.198H3182.93Z" fill="black"/>
</g>
<defs>
<clipPath id="clip0">
<rect width="3764" height="511" fill="white"/>
</clipPath>
</defs>
</svg>
