<svg width="64" height="64" viewBox="0 0 64 64" fill="none" xmlns="http://www.w3.org/2000/svg">
<path d="M64 0H0V64H64V0Z" fill="#F9F5ED"/>
<path d="M40.0214 14.3887H31.6246C32.4366 15.0752 33.0994 15.9206 33.5724 16.8729C34.0453 17.8253 34.3183 18.8643 34.3745 19.9261C34.4308 20.9879 34.2691 22.05 33.8994 23.047C33.5297 24.0439 32.9598 24.9547 32.2249 25.7231L32.2569 25.6873V25.7231H40.0214C41.461 25.7231 42.5186 26.2237 43.3466 27.2982C44.2688 28.4969 44.7994 30.2602 44.7994 32.1346C44.7994 37.9815 40.8193 38.2769 40.0214 38.2769H32.2569V49.6114H40.0214C45.0008 49.6114 49.3742 47.5413 52.3344 43.7607C54.7808 40.6349 56.1339 36.5061 56.1339 32.1346C56.1339 27.763 54.7808 23.5684 52.3156 20.3805C49.346 16.5171 44.9763 14.3887 40.0214 14.3887Z" fill="#404B65"/>
<path d="M18.7941 20.3391C18.793 19.2059 19.0397 18.0861 19.5169 17.0582C19.9941 16.0303 20.6903 15.1192 21.5566 14.3887H9.08746V25.7231H20.9224V25.6873C19.5535 24.2434 18.7915 22.3288 18.7941 20.3391Z" fill="#404B65"/>
<path d="M32.2569 25.7231V25.6873L32.2249 25.7231C31.4977 26.4856 30.6233 27.0926 29.6547 27.5073C28.686 27.922 27.6433 28.1358 26.5897 28.1358C25.536 28.1358 24.4933 27.922 23.5247 27.5073C22.556 27.0926 21.6816 26.4856 20.9544 25.7231L20.9225 25.6873V49.6226H32.2569V25.7231Z" fill="#D68270"/>
<path d="M26.0449 25.6572C27.1431 25.7683 28.2489 25.5367 29.2103 24.9942C30.1717 24.4517 30.9416 23.6249 31.4143 22.6273C31.887 21.6298 32.0393 20.5103 31.8503 19.4228C31.6613 18.3352 31.1403 17.3327 30.3588 16.5531C29.5773 15.7734 28.5737 15.2548 27.4856 15.0684C26.3976 14.882 25.2785 15.037 24.2821 15.512C23.2857 15.9871 22.4607 16.7589 21.9205 17.7216C21.3802 18.6843 21.1513 19.7906 21.2649 20.8886C21.3916 22.112 21.9362 23.2542 22.8069 24.1229C23.6776 24.9915 24.8212 25.5334 26.0449 25.6572Z" fill="#D68270"/>
</svg>
