<svg width="39" height="39" viewBox="0 0 39 39" fill="none" xmlns="http://www.w3.org/2000/svg">
<path d="M35.0659 11.1394C35.2934 10.3838 35.0659 9.82965 33.9901 9.82965H30.4265C29.5197 9.82965 29.1054 10.309 28.8779 10.8355C28.8779 10.8355 27.066 15.2539 24.4985 18.1188C23.6697 18.9524 23.2911 19.2157 22.8394 19.2157C22.6135 19.2157 22.2852 18.9524 22.2852 18.1968V11.1394C22.2852 10.2327 22.0236 9.82965 21.268 9.82965H15.6682C15.1027 9.82965 14.7615 10.2489 14.7615 10.6487C14.7615 11.5067 16.0452 11.7049 16.1769 14.1229V19.3684C16.1769 20.5173 15.9705 20.7269 15.5155 20.7269C14.3081 20.7269 11.3701 16.2923 9.6265 11.2158C9.28687 10.2294 8.944 9.83128 8.034 9.83128H4.472C3.45313 9.83128 3.25 10.3107 3.25 10.8372C3.25 11.7829 4.45737 16.4629 8.87412 22.6525C11.8186 26.8791 15.964 29.1704 19.7405 29.1704C22.0041 29.1704 22.2836 28.6618 22.2836 27.7843V24.5895C22.2836 23.5723 22.4997 23.3675 23.2164 23.3675C23.7429 23.3675 24.6496 23.634 26.7637 25.6701C29.1785 28.0849 29.5782 29.1688 30.9351 29.1688H34.4971C35.5144 29.1688 36.023 28.6601 35.7305 27.6559C35.4104 26.6565 34.2566 25.2021 32.7259 23.4813C31.8939 22.4998 30.6507 21.4435 30.2721 20.9154C29.744 20.2345 29.8967 19.9339 30.2721 19.3294C30.2737 19.331 34.6141 13.2178 35.0659 11.1394Z" fill="#F9F5ED"/>
</svg>
