<svg width="32" height="29" viewBox="0 0 32 29" fill="none" xmlns="http://www.w3.org/2000/svg">
<path d="M16.0018 1.2462e-06C7.16076 -0.00332673 0 6.65929 0 14.8827C0 21.3856 4.4795 26.9134 10.7179 28.9434C11.558 29.1398 11.4293 28.584 11.4293 28.2046V25.6254C6.57804 26.1546 6.38141 23.1661 6.05608 22.6669C5.39828 21.6219 3.84315 21.3556 4.3079 20.8564C5.41258 20.3273 6.53871 20.9896 7.84359 22.7833C8.7874 24.0846 10.6285 23.8649 11.5616 23.6486C11.7654 22.8665 12.2015 22.1677 12.8021 21.6252C7.77567 20.7866 5.68071 17.9311 5.68071 14.5366C5.68071 12.8893 6.26343 11.375 7.40744 10.1537C6.67814 8.14024 7.47537 6.41634 7.58262 6.16009C9.6597 5.98703 11.819 7.54453 11.987 7.66766C13.1668 7.37147 14.5146 7.21506 16.0232 7.21506C17.539 7.21506 18.8904 7.37813 20.0809 7.67765C20.4849 7.39144 22.4869 6.05359 24.4174 6.21666C24.5211 6.47292 25.3004 8.15688 24.614 10.1437C25.7723 11.3684 26.3622 12.8959 26.3622 14.5466C26.3622 17.9478 24.2529 20.8065 19.2122 21.6319C19.6439 22.0271 19.9867 22.4985 20.2206 23.0185C20.4545 23.5385 20.5747 24.0966 20.5742 24.6603V28.4043C20.6028 28.7038 20.5742 29 21.1105 29C27.4419 27.0132 32 21.4455 32 14.886C32 6.65928 24.8357 1.2462e-06 16.0018 1.2462e-06Z" fill="#F9F5ED"/>
</svg>
