<svg width="259" height="259" viewBox="0 0 259 259" fill="none" xmlns="http://www.w3.org/2000/svg">
<rect width="259" height="259" fill="#F5F5F5"/>
<path d="M32.4961 39.334C35.6113 39.334 38.9154 39.3812 42.4082 39.4756C45.901 39.4756 49.4883 39.4756 53.1699 39.4756C56.8516 39.4756 60.5332 39.5228 64.2148 39.6172C67.8965 39.6172 71.4365 39.6172 74.835 39.6172C75.2126 39.6172 76.6758 39.6172 79.2246 39.6172C81.7734 39.5228 84.6999 39.4756 88.0039 39.4756C91.3079 39.4756 94.612 39.4756 97.916 39.4756C101.314 39.3812 104.052 39.334 106.129 39.334V53.3525H99.332C94.9896 53.3525 91.6383 53.5413 89.2783 53.9189C87.0127 54.2021 85.3135 54.7686 84.1807 55.6182C83.1423 56.3734 82.5286 57.4118 82.3398 58.7334C82.151 60.055 82.0566 61.707 82.0566 63.6895V119.339H176.788V62.5566C176.788 60.291 176.505 58.5446 175.938 57.3174C175.466 55.9958 174.522 55.0518 173.106 54.4854C171.785 53.9189 169.991 53.5885 167.726 53.4941C165.554 53.3997 162.77 53.3525 159.371 53.3525H152.574V39.334C159.465 39.5228 166.262 39.6172 172.965 39.6172C179.667 39.6172 186.039 39.6172 192.081 39.6172C192.459 39.6172 194.016 39.6172 196.754 39.6172C199.492 39.5228 202.654 39.4756 206.241 39.4756C209.923 39.4756 213.604 39.4756 217.286 39.4756C221.062 39.3812 224.083 39.334 226.349 39.334V53.3525H219.693C215.445 53.3525 212.141 53.5413 209.781 53.9189C207.516 54.2021 205.816 54.7214 204.684 55.4766C203.645 56.2318 203.032 57.1758 202.843 58.3086C202.654 59.4414 202.56 60.8574 202.56 62.5566V196.087C202.56 196.842 202.512 197.597 202.418 198.353C202.418 199.013 202.418 199.674 202.418 200.335C202.418 201.657 202.56 202.789 202.843 203.733C203.22 204.677 203.976 205.48 205.108 206.141C206.336 206.801 208.082 207.273 210.348 207.557C212.613 207.84 215.729 207.981 219.693 207.981H226.349V222C223.233 222 220.165 222 217.145 222C214.124 221.906 211.008 221.858 207.799 221.858C204.684 221.858 201.38 221.858 197.887 221.858C194.394 221.764 190.523 221.717 186.275 221.717C182.688 221.717 179.384 221.764 176.363 221.858C173.342 221.858 170.463 221.858 167.726 221.858C165.082 221.858 162.534 221.906 160.079 222C157.625 222 155.123 222 152.574 222V207.981H159.371C163.619 207.981 166.923 207.745 169.283 207.273C171.643 206.707 173.39 205.952 174.522 205.008C175.655 203.969 176.316 202.789 176.505 201.468C176.694 200.052 176.788 198.447 176.788 196.653V134.49H82.0566V197.503C82.0566 200.241 82.2926 202.317 82.7646 203.733C83.2367 205.149 84.0863 206.188 85.3135 206.849C86.6351 207.509 88.4287 207.887 90.6943 207.981C92.96 207.981 95.8392 207.981 99.332 207.981H106.129V222C103.486 222 100.937 222 98.4824 222C96.028 221.906 93.4792 221.858 90.8359 221.858C88.2871 221.858 85.5023 221.858 82.4814 221.858C79.4606 221.764 76.1094 221.717 72.4277 221.717C68.1797 221.717 64.262 221.764 60.6748 221.858C57.182 221.858 53.8779 221.858 50.7627 221.858C47.6475 221.858 44.5794 221.906 41.5586 222C38.6322 222 35.6113 222 32.4961 222V207.981H39.1514C43.3994 207.981 46.7035 207.698 49.0635 207.132C51.4235 206.565 53.1227 205.81 54.1611 204.866C55.1995 203.828 55.8132 202.648 56.002 201.326C56.1908 200.005 56.2852 198.541 56.2852 196.937V62.1318C56.2852 60.527 56.1908 59.1582 56.002 58.0254C55.8132 56.8926 55.1523 55.9958 54.0195 55.335C52.9811 54.5798 51.2819 54.0605 48.9219 53.7773C46.6562 53.4941 43.3994 53.3525 39.1514 53.3525H32.4961V39.334Z" fill="#161616"/>
</svg>
