<svg width="54" height="44" viewBox="0 0 54 44" fill="none" xmlns="http://www.w3.org/2000/svg">
<path d="M4.41752 0.661999H7.11952C8.14618 0.661999 8.93952 0.895333 9.49952 1.362C10.1155 1.88467 10.4235 2.58467 10.4235 3.462C10.4235 4.43267 10.0595 5.16533 9.33152 5.66C9.05152 5.856 8.71085 5.99133 8.30952 6.066L11.2215 10H8.95352L6.46152 6.248H6.23752V10H4.41752V0.661999ZM6.23752 2.146V4.96H6.75552C6.90485 4.96 7.04952 4.95067 7.18952 4.932C7.33885 4.904 7.53018 4.85267 7.76352 4.778C7.99685 4.694 8.18352 4.54933 8.32352 4.344C8.47285 4.12933 8.54752 3.86333 8.54752 3.546C8.54752 3.22867 8.47752 2.96733 8.33752 2.762C8.19752 2.54733 8.01085 2.40267 7.77752 2.328C7.54418 2.244 7.35752 2.19267 7.21752 2.174C7.07752 2.15533 6.93285 2.146 6.78352 2.146H6.23752ZM17.6366 0.661999V2.23H14.2766V4.316H17.4966V5.884H14.2766V8.432H17.6366V10H12.4566V0.661999H17.6366ZM19.4019 0.661999H22.1179C22.6966 0.661999 23.1679 0.713333 23.5319 0.816C23.9052 0.909333 24.2552 1.096 24.5819 1.376C25.2166 1.936 25.5339 2.68733 25.5339 3.63C25.5339 4.50733 25.2772 5.20267 24.7639 5.716C24.2132 6.26667 23.4246 6.542 22.3979 6.542H21.2219V10H19.4019V0.661999ZM21.2219 2.23V4.974H21.9639C22.4959 4.974 22.8926 4.876 23.1539 4.68C23.4899 4.41867 23.6579 4.05467 23.6579 3.588C23.6579 3.13067 23.4852 2.776 23.1399 2.524C22.8599 2.328 22.4306 2.23 21.8519 2.23H21.2219ZM32.4024 10L31.5764 8.04H27.8104L26.9844 10H25.0104L29.0564 0.465999H30.4284L34.3624 10H32.4024ZM28.3844 6.556H31.0444L29.7284 3.196L28.3844 6.556ZM35.4527 0.661999H37.2727V10H35.4527V0.661999ZM39.4038 0.661999H42.1058C43.1325 0.661999 43.9258 0.895333 44.4858 1.362C45.1018 1.88467 45.4098 2.58467 45.4098 3.462C45.4098 4.43267 45.0458 5.16533 44.3178 5.66C44.0378 5.856 43.6972 5.99133 43.2958 6.066L46.2078 10H43.9398L41.4478 6.248H41.2238V10H39.4038V0.661999ZM41.2238 2.146V4.96H41.7418C41.8912 4.96 42.0358 4.95067 42.1758 4.932C42.3252 4.904 42.5165 4.85267 42.7498 4.778C42.9832 4.694 43.1698 4.54933 43.3098 4.344C43.4592 4.12933 43.5338 3.86333 43.5338 3.546C43.5338 3.22867 43.4638 2.96733 43.3238 2.762C43.1838 2.54733 42.9972 2.40267 42.7638 2.328C42.5305 2.244 42.3438 2.19267 42.2038 2.174C42.0638 2.15533 41.9192 2.146 41.7698 2.146H41.2238ZM1.25931 17.662H3.69531C4.43265 17.662 5.07665 17.7273 5.62731 17.858C6.17798 17.9793 6.69131 18.2173 7.16731 18.572C7.73665 19.0013 8.17531 19.5427 8.48331 20.196C8.80065 20.8493 8.95931 21.5633 8.95931 22.338C8.95931 23.9713 8.33398 25.2267 7.08331 26.104C6.57931 26.4587 6.06598 26.6967 5.54331 26.818C5.02065 26.9393 4.39531 27 3.66731 27H1.25931V17.662ZM3.07931 19.23V25.432H3.63931C4.59131 25.432 5.35198 25.2267 5.92131 24.816C6.28531 24.5547 6.56998 24.2047 6.77531 23.766C6.98065 23.318 7.08331 22.842 7.08331 22.338C7.08331 21.8433 6.98065 21.3767 6.77531 20.938C6.57931 20.49 6.29931 20.126 5.93531 19.846C5.38465 19.4353 4.61931 19.23 3.63931 19.23H3.07931ZM15.8182 17.662V19.23H12.4582V21.316H15.6782V22.884H12.4582V25.432H15.8182V27H10.6382V17.662H15.8182ZM23.1275 18.544L22.1755 19.79C21.7742 19.258 21.2655 18.992 20.6495 18.992C20.2015 18.992 19.8749 19.104 19.6695 19.328C19.4642 19.5427 19.3615 19.7947 19.3615 20.084C19.3615 20.336 19.4595 20.546 19.6555 20.714C19.8049 20.854 20.1782 21.0313 20.7755 21.246C21.6995 21.5633 22.3295 21.876 22.6655 22.184C23.1975 22.66 23.4635 23.3133 23.4635 24.144C23.4635 25.0587 23.1602 25.8007 22.5535 26.37C21.9562 26.93 21.1769 27.21 20.2155 27.21C18.8715 27.21 17.7982 26.622 16.9955 25.446L18.1855 24.312C18.3909 24.732 18.6755 25.0447 19.0395 25.25C19.4035 25.4553 19.7722 25.558 20.1455 25.558C20.5655 25.558 20.9109 25.4413 21.1815 25.208C21.4522 24.9653 21.5875 24.6527 21.5875 24.27C21.5875 23.9433 21.4662 23.6633 21.2235 23.43C20.9995 23.2247 20.5189 22.996 19.7815 22.744C19.0909 22.5107 18.5729 22.24 18.2275 21.932C17.7329 21.5027 17.4855 20.924 17.4855 20.196C17.4855 19.44 17.7422 18.796 18.2555 18.264C18.7689 17.7227 19.5109 17.452 20.4815 17.452C21.5362 17.452 22.4182 17.816 23.1275 18.544ZM25.062 17.662H26.882V27H25.062V17.662ZM33.7452 23.57V22.002H38.0292V22.24C38.0292 23.5187 37.7446 24.5687 37.1752 25.39C36.3352 26.6033 35.0986 27.21 33.4652 27.21C32.0186 27.21 30.8379 26.762 29.9232 25.866C29.0179 24.9607 28.5652 23.7847 28.5652 22.338C28.5652 20.8913 29.0272 19.7153 29.9512 18.81C30.8846 17.9047 32.0746 17.452 33.5212 17.452C34.1372 17.452 34.6972 17.536 35.2012 17.704C35.7052 17.872 36.1159 18.096 36.4332 18.376C36.7506 18.656 36.9839 18.8893 37.1332 19.076C37.2826 19.2533 37.4132 19.4447 37.5252 19.65L35.9432 20.504C35.8686 20.3827 35.7799 20.2613 35.6772 20.14C35.5839 20.0093 35.4392 19.86 35.2432 19.692C35.0472 19.5147 34.7952 19.3747 34.4872 19.272C34.1886 19.16 33.8619 19.104 33.5072 19.104C32.6019 19.104 31.8646 19.4213 31.2952 20.056C30.7259 20.6813 30.4412 21.4513 30.4412 22.366C30.4412 23.1967 30.6979 23.9387 31.2112 24.592C31.7246 25.236 32.4852 25.558 33.4932 25.558C34.1932 25.558 34.7859 25.3947 35.2712 25.068C35.7659 24.7413 36.0599 24.242 36.1532 23.57H33.7452ZM41.5246 27H39.7046V17.452H40.9646L46.6486 23.948V17.662H48.4686V27.182H47.2086L41.5246 20.686V27ZM0.685094 33.662H3.40109C3.97976 33.662 4.45109 33.7133 4.81509 33.816C5.18843 33.9093 5.53843 34.096 5.86509 34.376C6.49976 34.936 6.81709 35.6873 6.81709 36.63C6.81709 37.5073 6.56043 38.2027 6.04709 38.716C5.49643 39.2667 4.70776 39.542 3.68109 39.542H2.50509V43H0.685094V33.662ZM2.50509 35.23V37.974H3.24709C3.77909 37.974 4.17576 37.876 4.43709 37.68C4.77309 37.4187 4.94109 37.0547 4.94109 36.588C4.94109 36.1307 4.76843 35.776 4.42309 35.524C4.14309 35.328 3.71376 35.23 3.13509 35.23H2.50509ZM8.16361 33.662H10.8656C11.8923 33.662 12.6856 33.8953 13.2456 34.362C13.8616 34.8847 14.1696 35.5847 14.1696 36.462C14.1696 37.4327 13.8056 38.1653 13.0776 38.66C12.7976 38.856 12.4569 38.9913 12.0556 39.066L14.9676 43H12.6996L10.2076 39.248H9.98361V43H8.16361V33.662ZM9.98361 35.146V37.96H10.5016C10.6509 37.96 10.7956 37.9507 10.9356 37.932C11.0849 37.904 11.2763 37.8527 11.5096 37.778C11.7429 37.694 11.9296 37.5493 12.0696 37.344C12.2189 37.1293 12.2936 36.8633 12.2936 36.546C12.2936 36.2287 12.2236 35.9673 12.0836 35.762C11.9436 35.5473 11.7569 35.4027 11.5236 35.328C11.2903 35.244 11.1036 35.1927 10.9636 35.174C10.8236 35.1553 10.6789 35.146 10.5296 35.146H9.98361ZM17.1407 34.824C18.074 33.9093 19.2733 33.452 20.7387 33.452C22.204 33.452 23.3987 33.9093 24.3227 34.824C25.256 35.7387 25.7227 36.91 25.7227 38.338C25.7227 39.766 25.256 40.9373 24.3227 41.852C23.3987 42.7573 22.204 43.21 20.7387 43.21C19.2733 43.21 18.074 42.7573 17.1407 41.852C16.2167 40.9373 15.7547 39.766 15.7547 38.338C15.7547 36.91 16.2167 35.7387 17.1407 34.824ZM18.4987 40.662C19.0773 41.2593 19.824 41.558 20.7387 41.558C21.6533 41.558 22.4 41.2593 22.9787 40.662C23.5573 40.0553 23.8467 39.2807 23.8467 38.338C23.8467 37.3953 23.5527 36.6207 22.9647 36.014C22.386 35.4073 21.644 35.104 20.7387 35.104C19.8333 35.104 19.0867 35.4073 18.4987 36.014C17.92 36.6207 17.6307 37.3953 17.6307 38.338C17.6307 39.2807 17.92 40.0553 18.4987 40.662ZM28.9119 33.662H30.7319V39.962C30.7319 41.3527 30.3679 42.2953 29.6399 42.79C29.2106 43.07 28.7019 43.21 28.1139 43.21C27.2926 43.21 26.5786 42.9207 25.9719 42.342L27.0779 41.012C27.3113 41.348 27.6146 41.516 27.9879 41.516C28.3239 41.516 28.5619 41.4087 28.7019 41.194C28.8419 40.9887 28.9119 40.4847 28.9119 39.682V33.662ZM38.035 33.662V35.23H34.675V37.316H37.895V38.884H34.675V41.432H38.035V43H32.855V33.662H38.035ZM46.5763 40.536V42.664C45.8857 43.028 45.1157 43.21 44.2663 43.21C42.9037 43.21 41.765 42.776 40.8503 41.908C39.8517 40.9467 39.3523 39.7567 39.3523 38.338C39.3523 36.826 39.8517 35.608 40.8503 34.684C41.7277 33.8627 42.871 33.452 44.2803 33.452C45.1017 33.452 45.867 33.6433 46.5763 34.026V36.154C45.9697 35.454 45.2183 35.104 44.3223 35.104C43.4077 35.104 42.661 35.426 42.0823 36.07C41.513 36.7047 41.2283 37.47 41.2283 38.366C41.2283 39.346 41.5457 40.1253 42.1803 40.704C42.815 41.2733 43.5523 41.558 44.3923 41.558C45.2697 41.558 45.9977 41.2173 46.5763 40.536ZM53.2895 35.23H51.1895V43H49.3695V35.23H47.2695V33.662H53.2895V35.23Z" fill="#E3B873"/>
</svg>
