<svg width="178" height="96" viewBox="0 0 178 96" fill="none" xmlns="http://www.w3.org/2000/svg">
<path d="M31.428 96H10.741L0.0550001 0.0999935H14.714L22.797 75.724L30.058 0.0999935H44.58L52.115 76.272L59.924 0.0999935H73.076L62.39 96H42.388L36.908 44.899L31.428 96ZM117.118 0.0999935C124.882 0.0999935 130.544 1.92666 134.106 5.58C137.668 9.14199 139.449 14.6677 139.449 22.157V25.582C139.449 30.514 138.627 34.5783 136.983 37.775C135.431 40.9717 133.01 43.3463 129.722 44.899C137.212 47.8217 140.956 54.6717 140.956 65.449V73.258C140.956 80.656 138.993 86.3187 135.065 90.246C131.229 94.082 125.567 96 118.077 96H94.3763V0.0999935H117.118ZM109.446 39.145H115.337C118.351 39.145 120.589 38.3687 122.05 36.816C123.603 35.2633 124.379 32.6603 124.379 29.007V23.664C124.379 20.1933 123.74 17.6817 122.461 16.129C121.274 14.5763 119.356 13.8 116.707 13.8H109.446V39.145ZM109.446 82.3H118.077C120.726 82.3 122.69 81.615 123.968 80.245C125.247 78.7837 125.886 76.3177 125.886 72.847V64.49C125.886 60.106 125.11 57.092 123.557 55.448C122.096 53.7127 119.63 52.845 116.159 52.845H109.446V82.3ZM177.586 96H163.064V81.478H177.586V96Z" fill="#B9100A"/>
</svg>
