<?xml version="1.0" standalone="no"?>
<!DOCTYPE svg PUBLIC "-//W3C//DTD SVG 20010904//EN"
 "http://www.w3.org/TR/2001/REC-SVG-20010904/DTD/svg10.dtd">
<svg version="1.0" xmlns="http://www.w3.org/2000/svg"
 width="700.000000pt" height="700.000000pt" viewBox="0 0 700.000000 700.000000"
 preserveAspectRatio="xMidYMid meet">
<metadata>
Created by potrace 1.11, written by Peter Selinger 2001-2013
</metadata>
<g transform="translate(0.000000,700.000000) scale(0.100000,-0.100000)"
fill="#000000" stroke="none">
<path d="M1187 5233 c-4 -3 -7 -255 -7 -560 l0 -553 585 0 585 0 -45 56 c-55
67 -105 164 -137 264 -19 63 -23 96 -23 210 0 114 4 147 23 210 36 114 97 222
168 299 35 38 64 72 64 75 0 8 -1205 8 -1213 -1z"/>
<path d="M3410 5231 c0 -5 7 -11 14 -14 27 -10 134 -155 170 -229 126 -256 95
-577 -77 -803 l-45 -60 431 -5 c427 -5 433 -6 492 -29 43 -17 77 -42 120 -85
71 -72 114 -148 151 -271 25 -82 28 -105 28 -250 0 -179 -12 -242 -67 -354
-61 -125 -181 -215 -321 -240 -36 -7 -214 -11 -453 -11 l-393 0 0 616 0 616
-57 -51 c-67 -60 -179 -120 -283 -153 -65 -20 -95 -23 -220 -23 -132 1 -152 3
-225 29 -101 35 -189 83 -265 147 l-60 50 0 -1171 0 -1170 1019 0 c968 0 1025
1 1134 20 536 91 963 441 1172 960 201 500 185 1089 -43 1582 -242 522 -720
857 -1282 898 -170 12 -940 13 -940 1z"/>
<path d="M2778 5154 c-202 -48 -361 -227 -387 -434 -41 -321 197 -590 522
-590 195 0 374 114 462 294 193 395 -166 835 -597 730z"/>
</g>
</svg>
